<mxfile host="app.diagrams.net" modified="2022-08-20T17:41:27.502Z" agent="5.0 (Macintosh; Intel Mac OS X 10_15_7) AppleWebKit/537.36 (KHTML, like Gecko) Chrome/104.0.0.0 Safari/537.36" etag="1iQfqdLOOkWT9cMtfWbq" version="20.2.3" type="github">
  <diagram id="lLB_pNpaPfYKxERXUEZJ" name="Page-1">
    <mxGraphModel dx="1186" dy="636" grid="1" gridSize="10" guides="1" tooltips="1" connect="1" arrows="1" fold="1" page="1" pageScale="1" pageWidth="850" pageHeight="1100" math="0" shadow="0">
      <root>
        <mxCell id="0" />
        <mxCell id="1" parent="0" />
        <mxCell id="OcKrSWbJJXXR0cNZXRlc-1" value="" style="rounded=0;whiteSpace=wrap;html=1;" vertex="1" parent="1">
          <mxGeometry x="40" y="40" width="760" height="440" as="geometry" />
        </mxCell>
        <mxCell id="OcKrSWbJJXXR0cNZXRlc-2" value="" style="shape=image;verticalLabelPosition=bottom;labelBackgroundColor=default;verticalAlign=top;aspect=fixed;imageAspect=0;image=data:image/png,iVBORw0KGgoAAAANSUhEUgAADSAAAAFgCAYAAAARwTYrAAAEDmlDQ1BrQ0dDb2xvclNwYWNlR2VuZXJpY1JHQgAAOI2NVV1oHFUUPpu5syskzoPUpqaSDv41lLRsUtGE2uj+ZbNt3CyTbLRBkMns3Z1pJjPj/KRpKT4UQRDBqOCT4P9bwSchaqvtiy2itFCiBIMo+ND6R6HSFwnruTOzu5O4a73L3PnmnO9+595z7t4LkLgsW5beJQIsGq4t5dPis8fmxMQ6dMF90A190C0rjpUqlSYBG+PCv9rt7yDG3tf2t/f/Z+uuUEcBiN2F2Kw4yiLiZQD+FcWyXYAEQfvICddi+AnEO2ycIOISw7UAVxieD/Cyz5mRMohfRSwoqoz+xNuIB+cj9loEB3Pw2448NaitKSLLRck2q5pOI9O9g/t/tkXda8Tbg0+PszB9FN8DuPaXKnKW4YcQn1Xk3HSIry5ps8UQ/2W5aQnxIwBdu7yFcgrxPsRjVXu8HOh0qao30cArp9SZZxDfg3h1wTzKxu5E/LUxX5wKdX5SnAzmDx4A4OIqLbB69yMesE1pKojLjVdoNsfyiPi45hZmAn3uLWdpOtfQOaVmikEs7ovj8hFWpz7EV6mel0L9Xy23FMYlPYZenAx0yDB1/PX6dledmQjikjkXCxqMJS9WtfFCyH9XtSekEF+2dH+P4tzITduTygGfv58a5VCTH5PtXD7EFZiNyUDBhHnsFTBgE0SQIA9pfFtgo6cKGuhooeilaKH41eDs38Ip+f4At1Rq/sjr6NEwQqb/I/DQqsLvaFUjvAx+eWirddAJZnAj1DFJL0mSg/gcIpPkMBkhoyCSJ8lTZIxk0TpKDjXHliJzZPO50dR5ASNSnzeLvIvod0HG/mdkmOC0z8VKnzcQ2M/Yz2vKldduXjp9bleLu0ZWn7vWc+l0JGcaai10yNrUnXLP/8Jf59ewX+c3Wgz+B34Df+vbVrc16zTMVgp9um9bxEfzPU5kPqUtVWxhs6OiWTVW+gIfywB9uXi7CGcGW/zk98k/kmvJ95IfJn/j3uQ+4c5zn3Kfcd+AyF3gLnJfcl9xH3OfR2rUee80a+6vo7EK5mmXUdyfQlrYLTwoZIU9wsPCZEtP6BWGhAlhL3p2N6sTjRdduwbHsG9kq32sgBepc+xurLPW4T9URpYGJ3ym4+8zA05u44QjST8ZIoVtu3qE7fWmdn5LPdqvgcZz8Ww8BWJ8X3w0PhQ/wnCDGd+LvlHs8dRy6bLLDuKMaZ20tZrqisPJ5ONiCq8yKhYM5cCgKOu66Lsc0aYOtZdo5QCwezI4wm9J/v0X23mlZXOfBjj8Jzv3WrY5D+CsA9D7aMs2gGfjve8ArD6mePZSeCfEYt8CONWDw8FXTxrPqx/r9Vt4biXeANh8vV7/+/16ffMD1N8AuKD/A/8leAvFY9bLAAAAOGVYSWZNTQAqAAAACAABh2kABAAAAAEAAAAaAAAAAAACoAIABAAAAAEAAA0goAMABAAAAAEAAAFgAAAAAO9KBM4AAEAASURBVHgB7N0JfFxXeTDud0aLLVm2vNtZ7MSJnc3ECYQtlD3s0JSSNLTQj5YPKISUvaQUQkhLgY81YQmB8qdlJwmBQlhKUiB7ICE7cZzEdrw7drzItmTJWmbmf+44kiVLsqzEi+R5zu83mjvnnHvuOc+MpDvSfefNdXZ2lqqrq0MhQIAAAQIECBAgQIAAAQIECBAgQIAAAQIECBAgQIAAAQIECBAgQIAAAQIECBAgQIAAAQIECBAgQIDA7gK5Uiq7V3pMgAABAgQIECBAgAABAgQIECBAgAABAgQIECBAgAABAgQIECBAgAABAgQIECBAgAABAgQIECBAgACBTCCPgQABAgQIECBAgAABAgQIECBAgAABAgQIECBAgAABAgQIECBAgAABAgQIECBAgAABAgQIECBAgAABAgMJFAqFkAFpIBl1BAgQIECAAAECBAgQIECAAAECBAgQIECAAAECBAgQIECAAAECBAgQIECAAAECBAgQIECAAAECBAiUBWRA8kIgQIAAAQIECBAgQIAAAQIECBAgQIAAAQIECBAgQIAAAQIECBAgQIAAAQIECBAgQIAAAQIECBAgQGBQgXypVBq0UQMBAgQIECBAgAABAgQIECBAgAABAgQIECBAgAABAgQIECBAgAABAgQIECBAgAABAgQIECBAgAABApUtkC8Wi5UtYPUECBAgQIAAAQIECBAgQIAAAQIECBAgQIAAAQIECBAgQIAAAQIECBAgQIAAAQIECBAgQIAAAQIECAwqkEsZkKRAGpRHAwECBAgQIECAAAECBAgQIECAAAECBAgQIECAAAECBAgQIECAAAECBAgQIECAAAECBAgQIECAAIHKFshX9vKtngABAgQIECBAgAABAgQIECBAgAABAgQIECBAgAABAgQIECBAgAABAgQIECBAgAABAgQIECBAgACBwQSy3Ef5QqEwWLt6AgQIECBAgAABAgQIECBAgAABAgQIECBAgAABAgQIECBAgAABAgQIECBAgAABAgQIECBAgAABAgQqWCCXy0U+lQomsHQCBAgQIECAAAECBAgQIECAAAECBAgQIECAAAECBAgQIECAAAECBAgQIECAAAECBAgQIECAAAECBAYTKGdAKhaLg7WrJ0CAAAECBAgQIECAAAECBAgQIECAAAECBAgQIECAAAECBAgQIECAAAECBAgQIECAAAECBAgQIECgggVkQKrgJ9/SCRAgQIAAAQIECBAgQIAAAQIECBAgQIAAAQIECBAgQIAAAQIECBAgQIAAAQIECBAgQIAAAQIECOyNQF4GpL1h0ocAAQIECBAgQIAAAQIECBAgQIAAAQIECBAgQIAAAQIECBAgQIAAAQIECBAgQIAAAQIECBAgQIBAZQrkSqlU5tKtmgABAgQIECBAgAABAgQIECBAgAABAgQIECBAgAABAgQIECBAgAABAgQIECBAgAABAgQIECBAgACBoQTyQ3XQToAAAQIECBAgQIAAAQIECBAgQIAAAQIECBAgQIAAAQIECBAgQIAAAQIECBAgQIAAAQIECBAgQIBA5QrkJUCq3CffygkQIECAAAECBAgQIECAAAECBAgQIECAAAECBAgQIECAAAECBAgQIECAAAECBAgQIECAAAECBAjsSSCLPcqlL6U9ddJGgAABAgQIECBAgAABAgQIECBAgAABAgQIECBAgAABAgQIECBAgAABAgQIECBAgAABAgQIECBAgEDlCsiAVLnPvZUTIECAAAECBAgQIECAAAECBAgQIECAAAECBAgQIECAAAECBAgQIECAAAECBAgQIECAAAECBAgQGFIgXywWh+ykAwECBAgQIECAAAECBAgQIECAAAECBAgQIECAAAECBAgQIECAAAECBAgQIECAAAECBAgQIECAAAEClSdQKBQilwKQSrlcrvJWb8UECBAgQIAAAQIECBAgQIAAAQIECBAgQIAAAQIECBAgQIAAAQIECBAgQIAAAQIECBAgQIAAAQIECAwpkBd8NKSRDgQIECBAgAABAgQIECBAgAABAgQIECBAgAABAgQIECBAgAABAgQIECBAgAABAgQIECBAgAABAgQqViBfsSu3cAIECBAgQIAAAQIECBAgQIAAAQIECBAgQIAAAQIECBAgQIAAAQIECBAgQIAAAQIECBAgQIAAAQIE9ihQKpVCANIeiTQSIECAAAECBAgQIECAAAECBAgQIECAAAECBAgQIECAAAECBAgQIECAAAECBAgQIECAAAECBAgQqGwBAUiV/fxbPQECBAgQIECAAAECBAgQIECAAAECBAgQIECAAAECBAgQIECAAAECBAgQIECAAAECBAgQIECAAIFBBYrFYuTSl1Iulxu0kwYCBAgQIECAAAECBAgQIECAAAECBAgQIECAAAECBAgQIECAAAECBAgQIECAAAECBAgQIECAAAECBCpXIJ9FISkECBAgQIAAAQIECBAgQIAAAQIECBAgQIAAAQIECBAgQIAAAQIECBAgQIAAAQIECBAgQIAAAQIECBAYSCCfykD16ggQIECAAAECBAgQIECAAAECBAgQIECAAAECBAgQIECAAAECBAgQIECAAAECBAgQIECAAAECBAgQIBD5XC6HgQABAgQIECBAgAABAgQIECBAgAABAgQIECBAgAABAgQIECBAgAABAgQIECBAgAABAgQIECBAgAABAv0ESqVS5AuFQr8GFQQIECBAgAABAgQIECBAgAABAgQIECBAgAABAgQIECBAgAABAgQIECBAgAABAgQIECBAgAABAgQIEMgEcikKqYSCAAECBAgQIECAAAECBAgQIECAAAECBAgQIECAAAECBAgQIECAAAECBAgQIECAAAECBAgQIECAAAECAwnkB6pUR4AAAQIECBAgQIAAAQIECBAgQIAAAQIECBAgQIAAAQIECBAgQIAAAQIECBAgQIAAAQIECBAgQIAAgSz3Ub6rq4sEAQIECBAgQIAAAQIECBAgQIAAAQIECBAgQIAAAQIECBAgQIAAAQIECBAgQIAAAQIECBAgQIAAAQIE+gnkcrnIpSikUr8WFQQIECBAgAABAgQIECBAgAABAgQIECBAgAABAgQIECBAgAABAgQIECBAgAABAgQIECBAgAABAgQIEEgCeQoECBAgQIAAAQIECBAgQIAAAQIECBAgQIAAAQIECBAgQIAAAQIECBAgQIAAAQIECBAgQIAAAQIECBAYSKBQKMiANBCMOgIECBAgQIAAAQIECBAgQIAAAQIECBAgQIAAAQIECBAgQIAAAQIECBAgQIAAAQIECBAgQIAAAQIEdgrIgOSVQIAAAQIECBAgQIAAAQIECBAgQIAAAQIECBAgQIAAAQIECBAgQIAAAQIECBAgQIAAAQIECBAgQIDAoAL5Uqk0aKMGAgQIECBAgAABAgQIECBAgAABAgQIECBAgAABAgQIECBAgAABAgQIECBAgAABAgQIECBAgAABAgQqWyBfLBYrW8DqCRAgQIAAAQIECBAgQIAAAQIECBAgQIAAAQIECBAgQIAAAQIECBAgQIAAAQIECBAgQIAAAQIECBAYVCCXMiBJgTQojwYCBAgQIECAAAECBAgQIECAAAECBAgQIECAAAECBAgQIECAAAECBAgQIECAAAECBAgQIECAAAEClS2Qr+zlWz0BAgQIECBAgAABAgQIECBAgAABAgQIECBAgAABAgQIECBAgAABAgQIECBAgAABAgQIECBAgAABAoMJZLmP8oVCYbB29QQIECBAgAABAgQIECBAgAABAgQIECBAgAABAgQIECBAgAABAgQIECBAgAABAgQIECBAgAABAgQIVLBALpeLfCoVTGDpBAgQIECAAAECBAgQIECAAAECBAgQIECAAAECBAgQIECAAAECBAgQIECAAAECBAgQIECAAAECBAgMJlDOgFQsFgdrV0+AAAECBAgQIECAAAECBAgQIECAAAECBAgQIECAAAECBAgQIECAAAECBAgQIECAAAECBAgQIECAQAULyIBUwU++pRMgQIAAAQIECBAgQIAAAQIECBAgQIAAAQIECBAgQIAAAQIECBAgQIAAAQIECBAgQIAAAQIECBDYG4G8DEh7w6QPAQIECBAgQIAAAQIECBAgQIAAAQIECBAgQIAAAQIECBAgQIAAAQIECBAgQIAAAQIECBAgQIAAgcoUyJVSqcylWzUBAgQIECBAgAABAgQIECBAgAABAgQIECBAgAABAgQIECBAgAABAgQIECBAgAABAgQIECBAgAABAkMJ5IfqoJ0AAQIECBAgQIAAAQIECBAgQIAAAQIECBAgQIAAAQIECBAgQIAAAQIECBAgQIAAAQIECBAgQIAAgcoVyEuAVLlPvpUTIECAAAECBAgQIECAAAECBAgQIECAAAECBAgQIECAAAECBAgQIECAAAECBAgQIECAAAECBAgQ2JNAFnuUS19Ke+qkjQABAgQIECBAgAABAgQIECBAgAABAgQIECBAgAABAgQIECBAgAABAgQIECBAgAABAgQIECBAgACByhWQAalyn3srJ0CAAAECBAgQIECAAAECBAgQIECAAAECBAgQIECAAAECBAgQIECAAAECBAgQIECAAAECBAgQIDCkQL5YLA7ZSQcCBAgQIECAAAECBAgQIECAAAECBAgQIECAAAECBAgQIECAAAECBAgQIECAAAECBAgQIECAAAECBCpPoFAoRC4FIJVyuVzlrd6KCRAgQIAAAQIECBAgQIAAAQIECBAgQIAAAQIECBAgQIAAAQIECBAgQIAAAQIECBAgQIAAAQIECBAYUiAv+GhIIx0IECBAgAABAgQIECBAgAABAgQIECBAgAABAgQIECBAgAABAgQIECBAgAABAgQIECBAgAABAgQIVKxAvmJXbuEECBAgQIAAAQIECBAgQIAAAQIECBAgQIAAAQIECBAgQIAAAQIECBAgQIAAAQIECBAgQIAAAQIECOxRoFQqhQCkPRJpJECAAAECBAgQIECAAAECBAgQIECAAAECBAgQIECAAAECBAgQIECAAAECBAgQIECAAAECBAgQIFDZAgKQKvv5t3oCBAgQIECAAAECBAgQIECAAAECBAgQIECAAAECBAgQIECAAAECBAgQIECAAAECBAgQIECAAAECgwoUi8XIpS+lXC43aCcNBAgQIECAAAECBAgQIECAAAECBAgQIECAAAECBAgQIECAAAECBAgQIECAAAECBAgQIECAAAECBAhUrkA+i0JSCBAgQIAAAQIECBAgQIAAAQIECBAgQIAAAQIECBAgQIAAAQIECBAgQIAAAQIECBAgQIAAAQIECBAgMJBAPpWB6tURIECAAAECBAgQIECAAAECBAgQIECAAAECBAgQIECAAAECBAgQIECAAAECBAgQIECAAAECBAgQIEAg8rlcDgMBAgQIECBAgAABAgQIECBAgAABAgQIECBAgAABAgQIECBAgAABAgQIECBAgAABAgQIECBAgAABAgT6CZRKpcgXCoV+DSoIECBAgAABAgQIECBAgAABAgQIECBAgAABAgQIECBAgAABAgQIECBAgAABAgQIECBAgAABAgQIECCQCeRSFFIJBQECBAgQIECAAAECBAgQIECAAAECBAgQIECAAAECBAgQIECAAAECBAgQIECAAAECBAgQIECAAAECBAYSyA9UqY4AAQIECBAgQIAAAQIECBAgQIAAAQIECBAgQIAAAQIECBAgQIAAAQIECBAgQIAAAQIECBAgQIAAAQJZ7qN8V1cXCQIECBAgQIAAAQIECBAgQIAAAQIECBAgQIAAAQIECBAgQIAAAQIECBAgQIAAAQIECBAgQIAAAQIECPQTyOVykUtRSKV+LSoIECBAgAABAgQIECBAgAABAgQIECBAgAABAgQIECBAgAABAgQIECBAgAABAgQIECBAgAABAgQIECCQBPIUCBAgQIAAAQIECBAgQIAAAQIECBAgQIAAAQIECBAgQIAAAQIECBAgQIAAAQIECBAgQIAAAQIECBAgMJBAoVCQAWkgGHUECBAgQIAAAQIECBAgQIAAAQIECBAgQIAAAQIECBAgQIAAAQIECBAgQIAAAQIECBAgQIAAAQIECOwUkAHJK4EAAQIECBAgQIAAAQIECBAgQIAAAQIECBAgQIAAAQIECBAgQIAAAQIECBAgQIAAAQIECBAgQIAAgUEF8qVSadBGDQQIECBAgAABAgQIECBAgAABAgQIECBAgAABAgQIECBAgAABAgQIECBAgAABAgQIECBAgAABAgQIVLZAvlgsVraA1RMgQIAAAQIECBAgQIAAAQIECBAgQIAAAQIECBAgQIAAAQIECBAgQIAAAQIECBAgQIAAAQIECBAgMKhALmVAkgJpUB4NBAgQIECAAAECBAgQIECAAAECBAgQIECAAAECBAgQIECAAAECBAgQIECAAAECBAgQIECAAAECBCpbIF/Zy7d6AgQIECBAgAABAgQIECBAgAABAgQIECBAgAABAgQIECBAgAABAgQIECBAgAABAgQIECBAgAABAgQGE8hyH+ULhcJg7eoJECBAgAABAgQIECBAgAABAgQIECBAgAABAgQIECBAgAABAgQIECBAgAABAgQIECBAgAABAgQIEKhggVwuF/lUKpjA0gkQIECAAAECBAgQIECAAAECBAgQIECAAAECBAgQIECAAAECBAgQIECAAAECBAgQIECAAAECBAgQGEygnAGpWCwO1q6eAAECBAgQIECAAAECBAgQIECAAAECBAgQIECAAAECBAgQIECAAAECBAgQIECAAAECBAgQIECAAIEKFpABqYKffEsnQIAAAQIECBAgQIAAAQIECBAgQIAAAQIECBAgQIAAAQIECBAgQIAAAQIECBAgQIAAAQIECBAgsDcCeRmQ9oZJHwIECBAgQIAAAQIECBAgQIAAAQIECBAgQIAAAQIECBAgQIAAAQIECBAgQIAAAQIECBAgQIAAAQKVKZArpVKZS7dqAgQIECBAgAABAgQIECBAgAABAgQIECBAgAABAgQIECBAgAABAgQIECBAgAABAgQIECBAgAABAgSGEsgP1UE7AQIECBAgQIAAAQIECBAgQIAAAQIECBAgQIAAAQIECBAgQIAAAQIECBAgQIAAAQIECBAgQIAAAQKVK5CXAKlyn3wrJ0CAAAECBAgQIECAAAECBAgQIECAAAECBAgQIECAAAECBAgQIECAAAECBAgQIECAAAECBAgQILAngSz2KJe+lPbUSRsBAgQIECBAgAABAgQIECBAgAABAgQIECBAgAABAgQIECBAgAABAgQIECBAgAABAgQIECBAgAABApUrIANS5T73Vk6AAAECBAgQIECAAAECBAgQIECAAAECBAgQIECAAAECBAgQIECAAAECBAgQIECAAAECBAgQIEBgSIF8sVgcspMOBAgQIECAAAECBAgQIECAAAECBAgQIECAAAECBAgQIECAAAECBAgQIECAAAECBAgQIECAAAECBAhUnkChUIhcCkAq5XK5ylu9FRMgQIAAAQIECBAgQIAAAQIECBAgQIAAAQIECBAgQIAAAQIECBAgQIAAAQIECBAgQIAAAQIECBAgMKRAXvDRkEY6ECBAgAABAgQIECBAgAABAgQIECBAgAABAgQIECBAgAABAgQIECBAgAABAgQIECBAgAABAgQIEKhYgXzFrtzCCRAgQIAAAQIECBAgQIAAAQIECBAgQIAAAQIECBAgQIAAAQIECBAgQIAAAQIECBAgQIAAAQIECBDYo0CpVAoBSHsk0kiAAAECBAgQIECAAAECBAgQIECAAAECBAgQIECAAAECBAgQIECAAAECBAgQIECAAAECBAgQIECgsgUEIFX282/1BAgQIECAAAECBAgQIECAAAECBAgQIECAAAECBAgQIECAAAECBAgQIECAAAECBAgQIECAAAECBAYVKBaLkUtfSrlcbtBOGggQIECAAAECBAgQIECAAAECBAgQIECAAAECBAgQIECAAAECBAgQIECAAAECBAgQIECAAAECBAgQqFyBfBaFpBAgQIAAAQIECBAgQIAAAQIECBAgQIAAAQIECBAgQIAAAQIECBAgQIAAAQIECBAgQIAAAQIECBAgQGAggXwqA9WrI0CAAAECBAgQIECAAAECBAgQIECAAAECBAgQIECAAAECBAgQIECAAAECBAgQIECAAAECBAgQIECAQORzuRwGAgQIECBAgAABAgQIECBAgAABAgQIECBAgAABAgQIECBAgAABAgQIECBAgAABAgQIECBAgAABAgQI9BMolUqRLxQK/RpUECBAgAABAgQIECBAgAABAgQIECBAgAABAgQIECBAgAABAgQIECBAgAABAgQIECBAgAABAgQIECBAIBPIpSikEgoCBAgQIECAAAECBAgQIECAAAECBAgQIECAAAECBAgQIECAAAECBAgQIECAAAECBAgQIECAAAECBAgMJJAfqFIdAQIECBAgQIAAAQIECBAgQIAAAQIECBAgQIAAAQIECBAgQIAAAQIECBAgQIAAAQIECBAgQIAAAQIEstxH+a6uLhIECBAgQIAAAQIECBAgQIAAAQIECBAgQIAAAQIECBAgQIAAAQIECBAgQIAAAQIECBAgQIAAAQIECBDoJ5DL5SKXopBK/VpUECBAgAABAgQIECBAgAABAgQIECBAgAABAgQIECBAgAABAgQIECBAgAABAgQIECBAgAABAgQIECBAIAnkKRAgQIAAAQIECBAgQIAAAQIECBAgQIAAAQIECBAgQIAAAQIECBAgQIAAAQIECBAgQIAAAQIECBAgQGAggUKhIAPSQDDqCBAgQIAAAQIECBAgQIAAAQIECBAgQIAAAQIECBAgQIAAAQIECBAgQIAAAQIECBAgQIAAAQIECBDYKSADklcCAQIECBAgQIAAAQIECBAgQIAAAQIECBAgQIAAAQIECBAgQIAAAQIECBAgQIAAAQIECBAgQIAAAQKDCuRLpdKgjRoIECBAgAABAgQIECBAgAABAgQIECBAgAABAgQIECBAgAABAgQIECBAgAABAgQIECBAgAABAgQIEKhsgXyxWKxsAasnQIAAAQIECBAgQIAAAQIECBAgQIAAAQIECBAgQIAAAQIECBAgQIAAAQIECBAgQIAAAQIECBAgQGBQgVzKgCQF0qA8GggQIECAAAECBAgQIECAAAECBAgQIECAAAECBAgQIECAAAECBAgQIECAAAECBAgQIECAAAECBAhUtkC+spdv9QQIECBAgAABAgQIECBAgAABAgQIECBAgAABAgQIECBAgAABAgQIECBAgAABAgQIECBAgAABAgQIDCaQ5T7KFwqFwdrVEyBAgAABAgQIECBAgAABAgQIECBAgAABAgQIECBAgAABAgQIECBAgAABAgQIECBAgAABAgQIECBQwQK5XC7yqVQwgaUTIECAAAECBAgQIECAAAECBAgQIECAAAECBAgQIECAAAECBAgQIECAAAECBAgQIECAAAECBAgQIDCYQDkDUrFYHKxdPQECBAgQIECAAAECBAgQIECAAAECBAgQIECAAAECBAgQIECAAAECBAgQIECAAAECBAgQIECAAAECFSwgA1IFP/mWToAAAQIECBAgQIAAAQIECBAgQIAAAQIECBAgQIAAAQIECBAgQIAAAQIECBAgQIAAAQIECBAgQGBvBPIyIO0Nkz4ECBAgQIAAAQIECBAgQIAAAQIECBAgQIAAAQIECBAgQIAAAQIECBAgQIAAAQIECBAgQIAAAQIEKlMgV0qlMpdu1QQIECBAgAABAgQIECBAgAABAgQIECBAgAABAgQIECBAgAABAgQIECBAgAABAgQIECBAgAABAgQIDCWQH6qDdgIECBAgQIAAAQIECBAgQIAAAQIECBAgQIAAAQIECBAgQIAAAQIECBAgQIAAAQIECBAgQIAAAQIEKlcgLwFS5T75Vk6AAAECBAgQIECAAAECBAgQIECAAAECBAgQIECAAAECBAgQIECAAAECBAgQIECAAAECBAgQIEBgTwJZ7FEufSntqZM2AgQIECBAgAABAgQIECBAgAABAgQIECBAgAABAgQIECBAgAABAgQIECBAgAABAgQIECBAgAABAgQqV0AGpMp97q2cAAECBAgQIECAAAECBAgQIECAAAECBAgQIECAAAECBAgQIECAAAECBAgQIECAAAECBAgQIECAwJAC1cViMaqqqobsqAMBAgQIECBAYDgCrW3tsWnT1ti2rTlaWtqivbNrOLvr+yQFGic0xNGzZ0ZjY8OTHMnuBAgQIECAAAECBAgQIECAAAECBAgQIECAAAECBAgQIECAAAECBAgQIECAAAEClSxQKBSiOp/PV7KBtRMgQIAAAQL7SSALPvrjHffHwkWPxMqVj8bWbdv205EMO5DA8fPmxNlnvSxOOXnuQM3qCBAgQIAAAQIECBAgQIAAAQIECBAgQIAAAQIECBAgQIAAAQIECBAgQIAAAQIECOyVQJb4qDqXy+1VZ50IECBAgAABAsMR2LGjLdY+uiGWLF0RSx5eHk1btw5nd333gcDWbS37YBRDECBAgAABAgQIECBAgAABAgQIECBAgAABAgQIECBAgAABAgQIECBAgAABAgQIVLqA9EeV/gqwfgIECBAgQIAAAQIECBAgQIAAAQIECBAgQIAAAQIECBAgQIAAAQIECBAgQIAAAQIECBAgQIAAAQKDCJRKpRCANAiOagIECBAgQIAAAQIECBAgQIAAAQIECBAgQIAAAQIECBAgQIAAAQIECBAgQIAAAQIECBAgQIAAAQIEQgCSFwEBAgQIECBAgAABAgQIECBAgAABAgQIECBAgAABAgQIECBAgAABAgQIECBAgAABAgQIECBAgAABAgMLFIvFyGdpkBQCBAgQIECAAAECBAgQIECAAAECBAgQIECAAAECBAgQIECAAAECBAgQIECAAAECBAgQIECAAAECBAjsLlBVVRX5LApJIUCAAAECBAgQIECAAAECBAgQIECAAAECBAgQIECAAAECBAgQIECAAAECBAgQIECAAAECBAgQIECAwEAC+VQGqldHgAABAgQIECBAgAABAgQIECBAgAABAgQIECBAgAABAgQIECBAgAABAgQIECBAgAABAgQIECBAgACByOdyOQwECBAgQIAAAQIECBAgQIAAAQIECBAgQIAAAQIECBAgQIAAAQIECBAgQIAAAQIECBAgQIAAAQIECBDoJ1AqlSJfKBT6NaggQIAAAQIECBAgQIAAAQIECBAgQIAAAQIECBAgQIAAAQIECBAgQIAAAQIECBAgQIAAAQIECBAgQIBAJpCvqqoiQYAAAQIECBAgQIAAAQIECBAgQIAAAQIECBAgQIAAAQIECBAgQIAAAQIECBAgQIAAAQIECBAgQIAAgX4CuVwu8v1qVRAgQIAAAQIECBAgQIAAAQIECBAgQIAAAQIECBAgQIAAAQIECBAgQIAAAQIECBAgQIAAAQIECBAgQCAJlEqlyHd1dcEgQIAAAQIECBAgQIAAAQIECBAgQIAAAQIECBAgQIAAAQIECBAgQIAAAQIECBAgQIAAAQIECBAgQIBAP4FyBqTq6up+DSoIECBAgAABAgQIECBAgAABAgQIECBAgAABAgQIECBAgAABAgQIECBAgAABAgQIECBAgAABAgQIECCQCeQxECBAgAABAgQIECBAgAABAgQIECBAgAABAgQIECBAgAABAgQIECBAgAABAgQIECBAgAABAgQIECBAYCCBQqEgAGkgGHUECBAgQIAAAQIECBAgQIAAAQIECBAgQIAAAQIECBAgQIAAAQIECBAgQIAAAQIECBAgQIAAAQIECERUVVUJQPJCIECAAAECBAgQIECAAAECBAgQIECAAAECBAgQIECAAAECBAgQIECAAAECBAgQIECAAAECBAgQIEBgcIHqUqkUuVxu8B5aCBAgQIDACBPYurUllq9cF1u3tYywmR2Y6TROaIijZ8+MxsaGA3NARyFAgAABAgQIECBAgAABAgQIECBAgAABAgQIECBAgAABAgQIECBAgAABAgQIECBAoKIFqovFYjkVUkUrWDwBAgQIjCqBLPjoqh9fGw8tXjaq5r2vJnv8vDlx9lkvi1NOnruvhjQOAQIECBAgQIAAAQIECBAgQIAAAQIECBAgQIAAAQIECBAgQIAAAQIECBAgQIAAAQIEBhWorqqqGrRRAwECBAgQGIkCWeajLPjo/vsfGonT2+9zKhZLsXFjU3R0dKYg4up0k8lwv6M7AAECBAgQIECAAAECBAgQIECAAAECBAgQIECAAAECBAgQIECAAAECBAgQIECAAIEKFshX8NotnQABAgQIjEqBQqEYLS1t0ZxuhULXqFyDSRMgQIAAAQIECBAgQIAAAQIECBAgQIAAAQIECBAgQIAAAQIECBAgQIAAAQIECBAgMDoESqVSVBcKhZQ5QRak0fGUmSUBAgQIDCQwrr4upk2bGg3j6wdqHvV1Lc2tsWHDxtje2lZeS6lYjI6uzpQBqSuybEgKAQIECBAgQIAAAQIECBAgQIAAAQIECBAgQIAAAQIECBAgQIAAAQIECBAgQIAAAQIE9pdALpeL6nxeEqT9BWxcAgQIEDgwAlnw0Z+/5kUxf/7cA3PAA3yUhQuXxM9/cV1sX7HqAB/Z4QgQIECAAAECBAgQIECAAAECBAgQIECAAAECBAgQIECAAAECBAgQIECAAAECBAgQqHSBcgakYsqiIANSpb8UrJ8AAQKjWyDLfJQFHz3/z04d3QvZw+yvu+G2PbRq6i0wNkVYT6zNRUM+F1Upzroqcr2bh9xuLZSiqasY21N2qSzB1HCTTNWn406rzce4quEdt5BSU+5IB8uOv60roiM9lt9qyKdLBwIECBAgQIAAAQIECBAgQIAAAQIECBAgQIAAAQIECBAgQIAAAQIECBAgQIAAgf0sIAPSfgY2PAECBAgQIHDgBbLgo9Mbq+K4sflorM7FmBSQNJyyfEcxbtzaFct3FFIQ0vADkLLgo1dMro7j6oaXZbIlBR6t7SjG4rZSLNxeiA2dadaCkIbz1OlLgAABAgQIECBAgAABAgQIECBAgAABAgQIECBAgAABAgQIEDikBNr/dHt0PHxvdDzycLSvXRmFDY9F19amKLS2RHSmi0vStSVKhQhk10DV1ERVfUNUN06KqmnTY8zhs6P2mOOi9rhTYszJz6wQCMskQIAAgYMpUC0D0sHkd2wCBAgQIDB8gdbWHbF08aqora6Jhoa6qKmtGf4gvfZonNAQR8+eGY2NDb1qR8/m7hmHZo3JxdPHVcUJdbmYVJ2PFIc0rDK9JhfNKRioIWUwyrIgpVig2JEeZ5mJmtN2lploTyXLfJQFH50+fngHzrIererIxYSqUuTTHwzWdxRS9qVctKY5bEmBSVkwVFfKiTTcjEx7mqs2AgQIECBAgAABAgQIECBAgAABAgQIECBAgAABAgQIECBAgACBkSPQtXpptN70P9Fy+03Ret+d6UKVjpEzOTM5uALZNUvp9VDo2ByFLZsjVqTXSvx+15xqa6N+wWnR8MznRf3zXhnVRx67q80WAQIECBDYRwLVVVVV+2gowxAgQIAAAQIHQmDT5s3xu+v/ELfdcV9UVeUjnx9ehp/d53j8vDlx9lkvi1NOnrt704h/nK18eso49PJeGYcaUtzPjJQFaUIKBEp3wy4zUgDSGROr4xnjS9GZ3rc3dZViVXspZSYqxAMthdiUAoX2R6lL852V1jIxnZrNHZsCj0ppIx1/eXsxbknRSctbi7GtkIuOrFIhQIAAAQIECBAgQIAAAQIECBAgQIAAAQIECBAgQIAAAQIECBA4ZARarv52bLvmpzuDjg6ZVVnIARVIwUmtd/y+fIuvfqYcjDTh5a+NhjP/7oBOw8EIECBA4NAWqD60l2d1BAgQIEDg0BNoa9sRq9es3XcLS/EsW5qaU0bmUuSyVL0jvGQZj6amQJ0sQ1E222Prc/HMFHV0Yn3fjEM7UsagDSmCaGvKWtSSttt3Sx2U9c6WOy5tzExBR+NTvE91qmhI99nYqbUskQUgTasppuxD+VjWlqUhGn4AULZH9iEkhTRmqZTGSKV8hPQln7ayedTkSlGTzswmpNsRY3atZVqKosqyIGVxZstSEFJTCoDKlrJzlPJQvhAgQIAAAQIECBAgQIAAAQIECBAgQIAAAQIECBAgQIAAAQIECIwygVJrc2z5waWx5WeX78xoM8rmb7ojWyDLoJXdqr5xcUz8i7+OiW84L3L140f2pM2OAAECBEa8QPVoudh4xEuaIAECBAgQGKUC5cCYYiG6CoVIqRFHfBBSFnz0spTx6IS6LHQnyhmDjkh1u5etKVDo3tZCPNRWiuUpGmnrbpmLsj3yKehn9th8vDBF/ZyQApka8qWUNSkbdVcZmyJ/sgClmTX5yLaHW3YGH5XKcUtZUFT3NLKRskjwNGzUpvvdDttzmOnVuXhBY3U0pmxXHYXO2FEoRlvKgrRbPFVPfxsECBAgQIAAAQIECBAgQIAAAQIECBAgQIAAAQIECBAgQIAAAQIjW2Drdz4fm37wzShubxnZEzW7US9Q2LI5Nn37q9F01XdiyhveEo1v+sCoX5MFECBAgMDBEchij9IH/Q//QtqDM11HJUCAAAECBDKBurqxMWXy5BjXUB9VKSgl/3hQTEtza2zYsDG2t7aVocbV18W0aVOjYXx9H7gdre2xuWlr6tcanZ1d0dKyPR5YtDQaJzTEnGMOj8kTJ/TpP1IeZJmPpqVAowUp21GW8eikLAApncZ0n8lsS5E9qzqKsS1lPMrKYyn70cIUgPRICkBalSJ/mgtZKNCuku2XTwNs6UxZkKoKsaVQFQ0pImhMCu7J6iekTEiHp8CjrvR4bRprXUcpdjyBqJ/mNK+Vad9NKSCqvZxAaeeMq1LwU5ZoKcUXRU1aRXdsU/lxCkqakBqz4KPujEzFUj7Wd1aVA49W7MgyO8mBtOvZtEWAAAECBAgQIECAAAECBAgQIECAAAECBAgQIECAAAECBAgQGPkCbTf9MjZ+/XPRvmLpyJ+sGR5SAlmw24ZvfDG2XfuLmPr2f4q65736kFqfxRAgQIDA/hfIYo9kQNr/zo5AgAABAgT2qUAWfPTiFz47TjzxmGhoqIua2pry+AsXLomf/+K62L5iVflxFnz05695UcyfP7fP8ZcvWxM33XJXLF26Ipq2bI0NGzfFL391Qzy6bmOcc9ZLR2wAUhZ89IqU+ejpKfhoVtruHXyULTALPrq6qSuWtu4MNOpIwULNKUgnxSBFW5bmabeS1RRT/cbOYty0pRR3pSCkFJldzkpUnQKA5qYAp1dNqk6Zi0pxTVMh7m0uxKYUiDTcks3r55u7YklbsRw81DtsqDvoqKqUopB2xiXFmJSFqTEFHs1Lx88yHzVkUUqpZFmYXjqxOmV8ysXPN3WlAKThzkR/AgQIECBAgAABAgQIECBAgAABAgQIECBAgAABAgQIECBAgACBgyWw6bMfjKarrzhYh3dcAmWBLPhtzYfPjUlnvj6mfPCzVAgQIECAwLAEqovFYsqekD7iXyFAgAABAgRGhUB9/dg4dt6seOYznhKTJjbE2LG1PfO+7obberazzEdZ8NHz/+zUnrps44jDpsaO9o5y3aJFS1I2pKZYsXJ1ypQ0LpqamqNQKKSsSlmAz+MRMX32PvAPejIfjc+Xg4/m16fooFSyZESdKTgoC8RZnwKD7mwpxn3NxVixY+8jc7JwotY0UGv7rsCiLCioOkUDtaRhptYUyse5P429OktftIdSm7zGp1Oq6bW5qOt1apVlZFqasjAt2r5388rGybIvZeWpDdm8dj4PWSakuSn4aENnPuofD0oqd/KFAAECBAgQIECAAAECBAgQIECAAAECBAgQIECAAAECBAgQIEBgxAp0PnhPrP/0+bFjyYMjdo4mVnkCWTBc2wP3xox//kzUnND3+rLK07BiAgQIENgbgez64ursAmOFAAECBAgQqByBmTMmxxkvekaMHVMb69dtKAcglVefAnE6O7qiI91qa6tHTIDy7pmPup+pLDNRFnz0wI5i3LClWA7w2ZCyDT3ZkoaNrlwpHk0BR7/atDMwaW/GzYKPTkxRQgvG5WNyymD0REtXlGJbIRdbu9Lz8eSX80SnYT8CBAgQIECAAAECBAgQIECAAAECBAgQIECAAAECBAgQIECAAIEnKdD625/E2k+eH+mCnCc5kt0J7HuBLChuxXlnx+Ef/kzUn/G6fX8AIxIgQIDAISWQJT6qHinZDQ4pWYshQIAAAQIjWGDcuPo49pj6WL9+c0ya0hhj1oyJzs6uaG5pjftTRqQJjeNi7rGzYkpqO5gly3w0tTYfCxr6Zz7qSHFBG1LWoyUpc9HdKVXRvemWBQzti5KFHGVBSC2FYjkL0t6OmWUlmpdSHx1flzIhPYn47iyzU0cKQmov5iLFICkECBAgQIAAAQIECBAgQIAAAQIECBAgQIAAAQIECBAgQIAAAQKjUKD5x9+I9Zd8fBTO3JQrSiAFx6296L0xY8umGH/W2ypq6RZLgAABAsMXeBKXxw7/YPYgQIAAAQIERo7AmJQBacrkSTFpYmPU1FTHxo2b4pprb4mfXX19rF6z/qBPNAs+esXk6jgz3Wal7e6SBR9l2YEW7yjFb5oKcUtKg9SUVR7kMjYFIM0ek4ujx+QjxUwpBAgQIECAAAECBAgQIECAAAECBAgQIECAAAECBAgQIECAAAECFSqw7YdfEXxUoc/9aF12FiyXvW4VAgQIECAwmEApfbp/9WCN6gkQIECAAIFDW2DixIY44fg50dy8PRalzEebm5pi5arVMX7CuGhqao5CoRD5fD4OdLbEXGLPpS+NKaDnxLp8nJRu2ePusq1QigfainFXynr0YOu+y3zUPf4Tva9Jk5yQ5jyputdkn+hg9iNAgAABAgQIECBAgAABAgQIECBAgAABAgQIECBAgAABAgQIEBiVAlnmo8e++plROXeTrmyB7HWbqx0jE1JlvwysngABAnsUEIC0Rx6NBAgQIEDg0BWYOWNynPGiZ8TYlAlp/boN5QCk8mqLpejs6IqOdKutrY6qqqoDipAFG1VHLqrzpcin7d7BR9lE1qdsRzduLcZ920dG5qMDiuNgBAgQIECAAAECBAgQIECAAAECBAgQIECAAAECBAgQIECAAAECI1ag9bc/kfloxD47JrY3AlkmpKqJU6L+jNftTXd9CBAgQKCCBIrFYuSzNEgKAQIECBAgUHkC48bVx7HHHBnz5s6OqdMmRX1dXTnYqLmlNe5PGZHu+9Pi2LKl5YDD1Keoo6NS1qO5dVXljELdE9jWFbGwNWU+2l7syXy0YwSfx3SlU6zmNOeWlLGpMILn2e3rngABAgQIECBAgAABAgQIECBAgAABAgQIECBAgAABAgQIECBA4IkLdD54T6z95PlPfAB7EhghAtnrOHs9KwQIECBAoLdAltAgn0UhKQQIECBAgEDlCtTXj4mZM6fF1KlTYkxtbWzcuCmuufaW+NnV18fqNesPOMyUmny8ZFJ1vCrdDq9JKZAeL6s6inF1U1f8enNXbEjbI720FSLWdhZjXbrtSFml9kXJ4pj2zUj7YjbGIECAAAECBAgQIECAAAECBAgQIECAAAECBAgQIECAAAECBAgQ6BZY/+kUfNTR0f3QPYHRK5Bex+XX8+hdgZkTIECAwH4SyKeyn4Y2LAECBAgQIDAaBCY0NsQJxx8Tc+cdFfUpK1JrW1usXLU6Fj+yIpqamqNQKMSByJiYhRpVpS8TqyOOTxmQjq/Lxfi0ncXu7EjxRhtTSqElKQPSih2FaN1HAT378/nZVijGorZiPNxaitaUBWlvSzkD1NiqOLY+lzJA7dqrnAEqGy/dsqxKCgECBAgQIECAAAECBAgQIECAAAECBAgQIECAAAECBAgQIECAwMgQ2PTZD8aOJQ+OjMmYBYF9IJC9nrPXtUKAAAECBHoL5HO5XZkFejfYJkCAAAECBCpDYNq0SfG8554az37WgpjYOGHXolOQT2dHV/pglq44EBkT8+mUZGw6LxmbNqp7nZ90pFibbSngpjllFOocRXE3G9N872gpxn0tXbG1axfrUFvTavPxisnVcWbKADUrbXeXLAPUz1P2pywD1MZRkAGqe97uCRAgQIAAAQIECBAgQIAAAQIECBAgQIAAAQIECBAgQIAAAQKHskDbTb+MpquvOJSXaG0VKpC9rrPXt0KAAAECBDKBLJlBPstqoBAgQIAAAQKVK9BQXxdzjjo8jjnqiJg4cXyMqa2NLENic0tr3L9oSdz3p8WxZUvLfgcal445p64q5qbsRw274m7KwUcPpKw/D7UWYvsIzPxTk4KlJlbnYkpNCqDqNe803VjXXooNKWqqI510DVW6Mx8tGJ+PpyeA+fX5mJAyQJUzH6XMTzuDmYqxcpRkgBpqvdoJECBAgAABAgQIECBAgAABAgQIECBAgAABAgQIECBAgAABAoeCwMavf+5QWIY1EBhQwOt7QBaVBAgQqFiBfFVVVcUu3sIJECBAgACBXQK1tTUpAKkxxk8YHzXV1bFx46a45tpb4mdXXx+r16zf1XE/bU2uycULJlXFSydWx2Fpu7usTymQbthSjFu3FaIpS4c0wsq4dCp1bAoWOj4FTzVW7Zr3cKe5p8xHVzftzHy0Qeaj4bLqT4AAAQIECBAgQIAAAQIECBAgQIAAAQIECBAgQIAAAQIECBDYbwJbv/P5aF+xdL+Nb2ACB1sge31nr3OFAAECBAjk0gf2p8/VVwgQIECAAIFDUaCluTUWLlyy10tb9sjqaElZj7pLa1tbrFy1OiY0joutaaz9XepT8M4xY/JxXF3fIJ6WYsSq9mI8mm4jsWTznje2KgUg5VIA0q4ZTigHJmVr2bvTrWPrcz2Zj7JRssxHq1LAUTnzUXMxVqTMRwoBAgQIECBAgAABAgQIECBAgAABAgQIECBAgAABAgQIECBAgMDIECi1NsemH3xzZExmGLPIjRkbE17w0hhz3PyonXdy+VZs2hjtD90bHYv/FNvv/H3seHjRMEbU9VAXyF7nE87+h8jVjz/Ul2p9BAgQILAHgVKpFNVdXV1RnbIcKAQIECBAgMChJbBhw8b4+S+ui+tuuG2vFtbW2h5Nm7fE9tbW6EznB8reCWQBSFkGpBPq8jG+VwDSrNp8nDmpOrZN2LtxsoClbJ/ukgUfZZmP7kvBRzIfdau4J0CAAAECBAgQIECAAAECBAgQIECAAAECBAgQIECAAAECBAiMDIEtP7g0ittbRsZk9nIWdSctiBkfvjiqj5rXZ4/8+IlRPXtujHvpWTGpVIitP/xqbPjmFyM6Ovr086AyBbLXefZ6n/TWD1UmgFUTIECAQFmgnAFJ8JFXAwECBAgQODQEamurY2Lj+Bg/viHa2nakQKK22L5i1ahdXCnNvCtFSxfSRrY9UkttSik5OQUhTanpm7lpQorvnl+9K6BouPNvL+ViQ3spNnUWo31ECwx3ZfoTIECAAAECBAgQIECAAAECBAgQIECAAAECBAgQIECAAAECBEa/wJafXT56FpGrimlvfVc0/p/3RKTtPZbU3viGd0X9c14S6/713dG+5KE9dtdYGQLZ610AUmU811ZJgACBPQlIfbQnHW0ECBAgQGAUCUxoqI+j58yKTZu3xerVa6O5eXR9wsru1FnwUVsx0q0UxbRdaWVcil2aNTYfm7pK8Wh7MVoEIVXaS8B6CRAgQIAAgQMksHFzSzy8Yl0sWb4+qqryMWf2tDh21oyYMWX8AZqBwxAgQIAAAQIECBAgMJBA8/a2uOP+5bH+sa2xJW1X5/Nx/JzD4vi5h8X0Sc7XBzJTR2BPAmsea4o/PbQm1m3YEm3tHTFhXF0cl76nTjz2sGioH7OnXbURIECAAAECBAgMINBy9bejsGXzAC0js2ry2W+Mxje9f1iTqzn6xDjs09+KlW96Wcr01DysfXU+9ASy13v2um848+8OvcVZEQECBAjslUChUAgBSHtFpRMBAgQIEBj5AhNS9qP5JxxbnuiUyRNiy9bhvfHf0doem5u2psxJrdHZ2RXFYuGALDqfEgfVRC7G5ktR3SuJ0PYUfLRqRzFWpixAbVkapFFSslipLHhqeyEXTSl4qj3depfuJdakzElj062uqhQNKdioJoPoVcanD5s5rj5fDsDqTGNkBO1p3N2G67WHTQIECBAgQIAAgb0VaNrWGhd+4UfxvZ/8NppT9tCByvi6sfHm1788PvC2V8UR0ycN1GWf1/34mjvj01/77/K448aNjeu+d8E+P8ZwBvzHi74dt9+7uLzLS557SnzyA381nN31JXBICHz667+IH//6Dz1r+dU3PxRTJzf0PD6YG8//m3+L1Y9uKE/hs//y93HWy087mNM5oMcupffHzznnoih07fzbxflvf22c/YqnH9A5OBiBfS3w0Y9+NG666aaeYRcsWBBf+tKXeh7bIFBJAtl58WU/vDauv+XuQZedna+/8sXPis//yxvjsBkTB+03Ghr8XhsNz9LonWN7+n/Pl7/9v3H5z2+Oex7Y+f5uoNXMmDop3vL6l8W/vOPMqBtbM1AXdSNc4HXnXRyr124qz3L24dPiqktTZoO9LF3pf4LPe/2/9Zxf/9lpJ8TFF/ztXu6tGwECBAgQqFyBbdf8dNQsvnb2nJh07hP7n0P19CNi+rs+HOv+37886fVO+ev/G7naneeb22+/Ndoe/NOTHvNgDpAbMzamnPOmlFEqXfOT/ma58YpvRXR0HMwp7fdjZ697AUj7ndkBCBAgMGIFqqqqBCCN2GfHxAgQIECAwDAFpkyaEKeddmLMm3tkbGtpTe9nu4Y1wvJla+LmW++MJUtXRlMKRGpvPzABSFnwUWMKiZ5UnY/aFIjTXTan6f8xRSHdu70QzSkL0GgpWfBRSxY8lbIW3ZtSOG3oSA96lexvDlmsUUP6tM7pNbk4ojYXc8bmYlKvtWfdJ6VorKemAKQxqW9beiq6SoXY1Jm20/gKAQIECBAgQIDAExf4xhXXxwWf+25s2rLngP0sMOlL3/pZ+Xbu374mvnTh/0n/P0onZ/uxrH50Y9x1/8P78Qi7ht60pSU2b91ersiyqQ6U8emeRct75nPYjAMThLVrhrYIjAyBRUvX9HwfZDNqSR/eMVICkJYuXxPrNzaVoZq2juwsyNmF1UtWPtbzpB59xLSoSX8HeDLlj/cs6tl91bqdF1r2VNggMMoEtm/fHpdddlmfWd9///3xkQs+EjOmz+hTX8kP1qxZEzt27Awenz59eowfLwPOofZ6WJEunH/rh74W1/3+3iGXlp2vX/nLG+J/fndbfOi8c+L9b3nVk/7dMuRB92MHv9f2I24FD33dbYvi7R/+Wjyy8tEhFbLzyk9eekV876fXxxcueHO89iVPG3KfkdRhf5xvHoj1rV7XVM5GlR1r5tQJMT5lpXqi5e57l8Sq9Ts/oGDDhp3vE/Z2rFIxF71/DjWOf+Lz2Ntj6keAAAECBEa7QNfqpdF6352jYhm5dH3KzAu+ELmasf3m2/q7/46mK/8z2pcvjarGiVF/6jNiyrkXRn7ilD59G179xhh//f9E8x9u7FM/3AeTzruoZ5cx834Raz76zp7Ho3FjzKyjY+I/7Arsar7xt9G+YuloXMpezzl73Wev/+ojd35I9l7vqCMBAgQIHDIC1dkfYvb3xROHjJaFECBAgACBESxQVzcmjqybFpE+1eyJlMYJDbF4yYpYs+axaK5u9OshAABAAElEQVRqjvYnMsgT2CfLejQhXXQ0MWX8GdNr/+0p6GjVjlKsTbcUxzNqSnOa6+K2UjyQoobuTwFUGzt2CxhK683WXF9VjClp3WtS1NX6zlxMfjz904TkcESqm5CCsupScFJX5GNzZ6mcVWlHSl85mixGzZNmogQIECBAgEDFCFz927vj3Au+OuB6s09QHywb0mXf+0WMb6g7pDIAveOj/xn//eubyxbPftr8uPmKjw3oopIAAQL7QmDR0rWx4JXv6xnqmm9fFGc856SexzYIVLrAVVddNSDBFZdfEe9+97sHbKvEyuc///mxdevW8tIzlwsvvLASGQ7ZNS9esT5e9sZ/67l4fveFZufrWdn9nD17/JHPfSfuXbQifnDJebvv5jGBihXI3v++7h2fGnT9UyaOH/CDOVauWR9nn/v/4isfPzfe8dcvGnT/kdYwWs83T/vzf+p5Hs4/95z45PvPHmm05kOAAAECBAgMItB60/8M0jLyqmuPmhO1J/bPnt701Yti0w//s2fCxe0tsXXt6mj5/Y0x++s/jarDjuppyzbGv/KsJx2A1GdAD0atQPb6n/A3/zhq52/iBAgQIPDkBKqLxWJkqZAUAgQIECBAgMDBEKhJH3g8Pp2KNKYAnJosNdDjJcvf1Joy/7QWS3FgcjF1H/nJ3T+WshTdvC0LPiqkwKFiOXtRnxHTErNVVqUvq3LFlPUpF3XpQW36NP2s/pj6XPzFpOpyUFa239TU9uwUlVSV2le3p3TNXaNJI1uBQoAAAQIECBAYGQJrHmuKt33oK30mc8ZznxYfe8/Zcerxs6O+rja6ioX0ydAb474HV8WHP/vdPp8S/Zmv/SieMu/IeMOZp/cZ41B+UFOz62+GtTU1h/JSrY0AgQMsUIzdPqzjSR6/xv84nqSg3Q+2wPe///0Bp3DllVcKQBpQJiL7gEXl0BHIMgy+8K8v7Mns172y7Hz9LeecEU9/ylFxzKzp5eptzTvilrsWx8cuuaJPlsIsG9LznnFinPvGF3fvPmrv/V4btU/diJn47fc9MmDw0Tve+Op49YueFqctODqmT9qZRW79pub47/+9Iz7+xcv7fA/+40cvi2ctODaeetLsEbOu4UxkX59vDufYT7iv321PmM6OBAgQIEDgYAi03H7TwTjsEzrmmLkn9Nuv/e5bYtPl/9WvPqsoNG2Kxz71gTjsS30/MKX2+FMH7K+y8gSy178ApMp73q2YAAEC3QLVgo+6KdwTIECAQKUIbN3aEstXrout21r6LDnFwZSzAk5ImYBmz5oRjY0NfdpH2oO29MmO27dvj/b2jmhpaY32zr6BKePGjY0Z0yfHpLSOMWPGRnXKtjMSSy5dK5AFIaWkP9Er/ihdipSLQvpnSyFlFCrt4wuT9oVDxlmXgoIaU6aiMb0m3pyehuXtxViRUhV1pHmn+Kkhyq4Oabi0R3VsmZDd7wxUqk/XfM5OQUhrUjak3scZYlDNBAgQIECAAAECuwn8549u6PlU4azpA287Kz59/uv79KrOV8VxR88o3179wgVx3se+Fd/5yW96+nz5u7+uqACk6753Qc/abRAgQGAkCeTSG+iuxVeOpCmZC4EnLLB06dK46667Btz/wQcfjEWLFsWJJ544YLtKAoeKwKe//os+gQ/Zuj55/t/HB9/6yvLf7Huvc8L4sfHKF5xcvn380p/Gv17yg57md130tXjBs46Pk+Ye0VM3Gjb8XhsNz9LomuM/fep7fSacZTv6zsXvi5c/9yl96rMHM6aML2c6+vvXPTded+7Fce2Nd/T0Oeudn42HfvPFqBmh/1/qmagNAgQIECBAgMBBEGi9786DcNQndsix8+b327Hl+p9nn+7Rr767Yvvdt0exuSny4yd1V0X1EXMiP258FLc399RV+saOZUvisX99Rw9Dx6plPduH8sZoev0fys+DtREgQOBgCaRLZhUCBAgQIFBZAlnw0VU/vjYeWtz3TV8+l4+q6qo4ft7R8Zd/cUacPMIDkDZv3hoPL14eSx9ZHStXre0XUHXkETPj+c87LU6ePzdmzpicApDqR+QTXUpBN4X0N43O9IeN3n/byKUQnCxLUHbLgpRGWsmCj2aNzcecdGvoFduVfapeR4o6yoKPeq9nb+af9c+WWr5lD9Ix0vIVAgQIECBAgACBfSBw8x0P9owya8a0+Pf3/1XP44E26sbWxn986i1x8x0LezIhPfjQsiikk9eq7CRVIUCAAAECBAjsA4Hvfa/vReLvfe9745JLLukZOWv/xCc+0fPYBoFDTWDdxq3xlf/6WZ9lXfPti+KM55zUp26gBx8977WxZNm6+P7PftfT/P2rfx+feP/ZPY9tEKg0gZ//7p649Y77e5adBR/d/avPx+HTJvbUDbQxtrYmrvzye+LZZ30kHlyystxl5Zr1cePtD+7V9+NAY6ojQIAAAQIECByqAu1/uj2io2PULK92zvH95tqxbGm/ut0rOpc9GGMWnN6nesyso6PtwT/1qavoB4Wu2PabX1UeQXr9Z98HY05+ZuWt3YoJECBQ4QKldF1rdaFQSBdNpI/WVwgQIECAwCEqsHvGo4ULl8Sddy2M5StW9VlxLp8CkNInnm9vbo0ZM6ZG09adn9jRmDIiHT175ojJiNTauiOWLl4VGzdsiYcfXpbWsTrWrF2fsiBt77OejRuaYkztmNi2dXtMnzYpDjt8+ohaR/dku1KGo21dpdjSlf4+U47Y2Xkx59h0N7UmF1PSrTP93SYLUBpJpT5ddHpsXT6OS7fGXqdSWcajQoqqGjrz0cCryQyaOkuxqStlV6oqpcxQOz2yGKdsK7uNLImB16GWAAECBAgQIDDSBG6/84GeKT39qcfv1Sc4ZxmR3nz2S+KjX/hued/mlIX04RXr4sRjDusZa/eNjZtb4o6Fy+OedHvwkTXlT2w/+YTZ8dSTjopnnHxMNNSP2X2XvX68cPHadK65M/PpMUdO3+NYqx7dHE3NO98jTJ88IWZObSwfp3uMjU3beo67ZVtz3PfwzvdHM9NFadMnjS+3bWveEa3t7eXthvqxezxea1tH3P3Airhr4bK4O629mM5rjz1qRpxywlHxrFPnlj9Vu+eAu220d3bFQ8seLdfWVFf3+GZ/vFy0dG3ceteSuD/Nb86R0+IZpx4bT0uW2cVxQ5W2HR1xzc33x8PpotQl6XkrlYpx0rxZseC4WWles2Pq5P2X9fYDn/xBfPG/fjrUFPeq/T1vfm18/sNv2Ku+Oh14gc3pPffq9ZvLB56c/n5w5Mydnwiava7vTN8Lf7h7SaxaszGecvysePap8+KE9PNjb4MYu4qFuG/R6rjtvqWxo70zpqXvzWc/dW7MnT19yIVmP4vWbmwq96sfO2aP+/T+Hsx2OHnekf2yTXQfMPtZcfs9j6TvqfWxZt2mmHX41HhK6v+UE45M37tH9PvZ2j2PB5eu6x6ifP/Q0kdjxtSU/jeV7HsyK1mA58Klq8vbVbmqmD/v8PJ2dmH6L9KFtAvTsWdMnRgfesdryvXZ2JlRViY1josxNXv+vLXsZ9qdDyyLP963LDY1NcfktM+JKUPGy59/8pD7lg+SvqxNf4u5/veLYvHydbFs9WMxccK4NM8jY/7xR8apx8+O+rra7q77/N7PlX1OOiIGzP5Hd+WVu7J5LViwIN73vvf1CUC66qqr4t///d8H/b4caCHZ79CHHnoobrvttvQ3w5aYOnVqnHLKKXHCCSf0dM+OnZW9+R/htm3b4p577ilnatq0aVNMnDixnJXpJS95SdTWDv6637x5czz66M7f8dk+RxyxMytNR7pIJRvv9ttvj9WrV8f8+SfF05/+jDjuuOP6zaetrS0eeeSR8lyz/bpLNu7ChQvLD+fMmRP19f0/fOnGG2+MBx54IJYtWxZbt26NY445Jp7ylKek482Po446qnso9wdZ4GOX/Diy8+zu8uoznjWsYIdP/fNf9wlAuuaGu/cYgLRi7aa44bYHY9mqx9Lv8E0xYVx9HJ5+fx91+LR4RfqdsKfz9UfXb4kNj//f4PCpk3rOJ3976wNx690Px2Mbt6X3Dy+Ip80/ar//Xsvm8sf7l8Wd6dbZVUhzSecJ6bz7OelcYU8l+324/NEN5S4T0vfN0UdOKW9n7xOuveVP8Uj6Hfe8Z50U57zyGX2GOZjn1n0m4sEeBbLzqX/5bN/A1n9+518NGXzUPWj2+r/gXX8Vf/uez3dXxa+uv2eP35PLVm1I570r0mvxkVj9aPodMb4+Fpx4VJxy4uw4bf6cPZ779n7fOmvmlJg0YefP8i3p/3R/SOecf7h7cWSvvdPSe+nT03vBWYdN7plX98Zwzje79+m+b2ltj1/dcF88kv08WLux/P+XIw+bEofPmBQvTkGQR0zf9Wn/3fsMdr96XVOa89K440+PxKo01rhxY+PYWdPj1PlH98s8la1p8cr15aE60nl+d1mb3ld0vzefO2vGfj237D7mE72/7rZF6fx8Tfm99pZt22Pu0TNjQTofPvm4I2POrGlPdFj7ESBAgACBUSPQ8fC9o2au5YlW9X/vXuradR4y2GJK7bveh3f3ydUM/bf57r4H6r7msCOi4dnPj7qnnh5VE6dF5/KHovXe26PljlujuHXLXk+jetrMGP/8M6J6yszoXLs8Wm67Jbo29P275kCD5caMjciu7UkXCpXad72/zfrWzDg88mPryru1r1yeLvjZ+feY2iOPTsdKf1eZOz86Hr4vmm++LjpWp/ZRVLLvAwFIo+gJM1UCBAjsI4Esm3t1Pl1srRAgQIAAgUNZYPeMRy3pHxcbNmzsv+T0j/lCunBlzbr1cfXPfxe/ve735T7Hz5sTZ5/1sjjl5D3/467/gPunZlP6x/3vrv9DuqinOra3tkZr+if8jh07LwrsfcSmLVvjttvTBToPPBw16eK8k044dkSto3uubcn90TT9yTWlaC1m4TU7S2N1Lk4YV5XqIprTJ4ZsT/cjqYxPAUgn1VfFKfUpACnNdV+VtvQPwmXtxZiaxpxXl4vJvU7VykFI6QQuS60kCGlfiRuHAAECBAgQqBSB3hc1rkwXA+1tOePP5sfVvzuxp/v2tv7n3lljdqHXxy/9afz7l3/Y03f3jRnpIsWvfeLc+PMXn7p705CPN21piVNe9d6efl/7xHnx1nNe0PN49403vv8rPZ96/frXvDC+f/E7o2lba58xuvfJPt36aa/+QPnhm895WXzjE28tb7/mHz7TM8aZLzs9fnLp+7p36XP/09/cFW9+/yV9Lhzt0yE9+MQ/vSk+8LZXpj9G9oref7zTzX98OF7+dxf17NK1+Mq47Ie/iw9/6luDjvn1T54Xb/mrgdefXXT9n1fdGBd+4Qex/vEAjJ7Be2188vy/j/Pf9qpeNftusztg6MkGIQk+2nfPyf4a6XPf/J/4zGVXlod/0emnxM++/sH4589cHpd97xcDHjL7BPpff/tjKShx9oDtWeWOjs54+4e/2edi6t6dX/niZ8Z3P/fO3lX9ti/60o/ja9//Zbk+y/q27OZL+/Xprrj1rsXx0r/9WPfDePC3X+kXsLR89ab40Gd/GFf96saefrtvnHzCMfGjS9/fZ99/TfO47PF59O7/3n/7j56HK2/9j/JFsVnwUffPoqxx413fil9ed2/84wWX9fwsyNaSBSBl3+czn/V/e8b4wgVvi3f/3Ut7HvfeyC5KfdMHvxrX3nhH7+qe7fF1Y+Pdb3ltXJCyaNRUZ++8+5fs4tRPXnZ1fOZrP+rf+HhN9tx+5+L39bvAdNAdhtng58owwUZJ9yxAZv36nRcgZ1M+55xz0gXL4+LlL395XHPNNeVVZAE/N9xwQ7zwhS8sPx7qy+WXXx4f/OAHIwvc2b085znPiYsvvji+9KUvxfe///1y89vf/vZBMyxlx87ar7/++t2HKj+uq6uLd7zjHXH++edHzQAXIH3lK18pHyvrfPrpp8cVV1wRF154YXzrW98q77/7l8bGxvjJT35SDpbqbssc3vrWnecm3XXZfRaYld2ycumll8brX//68nb25ZZbbomPfOQjcf/9uzKA9DQ+vnHmmWfGl7/85bL37m0eHziBth2d8c0rft3ngB9//zl9Hg/1IMvq8peveG785oadP+dXrV2XAnKK/X6mZwE2H7vkR/HTa28ZdMjsd8LZf/78+Mw/v6EnEKJ35/P+9Vtx9f/eWq46929fEx971+v6/Y45NQXLZwFI++v32t0PrIw3vPeSWLxsde+p9WzPPmJGfOKDb4y/efWze+p6b/zXj2+ID3zim+Wqk447Ou6++tPxoc9dHhf/f//d021r+h9KdwDSSDi37pmYjSEFfvuHB3qyF2Wds/eg73zjGUPu17vDX770tMjOubIPqsjKA0t3flhF7z7ZdhYk9H8/9PW4+tqd/0vbvT17fNqCE+K/Pv32OCkFfQ9U/ua9X44/pA8MzMqF73lD/N3rnhf/8JFvxG9vvmug7nHqSfPif7/7kT7fn8M53+weNPsQgYu++JP47lX/P3vnAVjT2cbxv+xEluwgESS22HvvrTWqFEV10BpVpS3VQdHqULTVrShapbUVnz1rzwiJSIQQM7Jk53ufE+fcc27uvUnI5Hnb67zrvOOXe898/8+zTbnOlMvU2y5tG2H2pIGKYF5dJsfpeDPp0+X4ZvE6OSvblq6TP31niHKduHHXaQwcOydbvd//2Q76UFj85QQM7t0sW52iztgr7t8nzlqC42cvGh3KgB5t8OOsl00KOo3uzAVMgAkwASbABEoIgZQw4+fCEjKFJ2KY5i5u8Fn4NyzK+mnmY12vBez7vAQP8QwxbvWPiJ43U1Oun3AQ4iWP6d+jlK29pshNpFLOH8PViS+i4tpjKGVhLZWH9aqjCJusK/rDZ8kOZb8rg1prhES+f+wV+1lK5dfH9odNtVpwfnUKSlnqRGGlO/VDmTc+RkZSIq692hPJl0OV9opzhH8Hxfmvw2NjAkyACRQcAXpeaJGRkZHNmljBdcktMwEmwASYABN4dAKyJyPyYEQiIjlQnPKMBX2PR6TApY+9gz3cXV3ES2Zb0nMIa6CJuH37NhITEnBZ5U2I2i8rvAfdj4031kWB5uvP94GwBnn1WpTSp7W1NdykedgJj0eWYuFjBuLEXBIfJODOnXu4EX1TqvtAeE4yNY/wy9cQffO2sCaXhDTRRmEFsU4T8XTTL4x8JEtug7LEPPbCOkgl61K4m1oKwYkiT3gFKk6BPBN5CO9Mnlb5Jz6i+RGCRAElTkRShSclDkyACTABJsAEmAATYAL5Q4AWPh07HSw1Rtula/Zj6LMtcmy8cWAlHPzrY5P1ou/EYciE+dh50LTVQxLD9HltFgb1bodFn79qUIxjsqNCLsyQrs+zOqX7DP2Qm4VW8j5Tv1iCvzYdxNqf3s7RivQrU3/GopVb5V0Nbl+b8q1klOHFPtn/hp98txYff73c4H7qzClzfsPuw+ewasGbsLXJegGoLn/c+OOKBVh89Lh/gcLf/37cA7Qe+DFOBoUY7fxOTBy6DvsY25Z9ZHAhIwkFn3ntC0X8Z6ihzTsOo90Lt00K7AztZywvg27MTYRrN++hSZ/JoLGbCmeCw9Co59tYOu8t9GyXd6GlftuLV+9VFkjrl+mn04WHM0Nh95FgvDBurklWJFCd+c0f+GfrIexY+oHizUJuj7ws9Xr1c+z977ScZXBLfHqMmI5pYwfhw3F9DNZ53Ew+rjwuweK3/9KlSzWDIgEShX79+ikCJEqTqCgnAVJqaireeecdLFmyhHYxGA4cOIDu3buDPAbJQfaEJKfl7b59+zBy5EjxfPGOnJVtSyInEjRt3LgR69evh6trlieVbBVFRlycOP517Sp5JDJUTnnkpahv375Yt26d5KXIWD1T+Xv37kWfPjn/BqmP06dPSx6oyDMSh6IhEHJFa0maRLayZ7y8jOivBeNMVv/vVBi6Dv3IpNCAGqBzAl2HngoKx45l00wuno9LeIBOwz4Bnf9yE/LjvPbN0v9BLeI11O+Va9EY+uZX2LSjHX6bM8qk9xna/5UpP2HJ3/8z1JSUV1yurY0OkAs0BM6HaIVpb73ybK68x6obIa+SpsTrVPfw6TAMFNdY9H0zFejeO7DbBHw5dSTGD+9iqqrk7bLxM6avOek6u9PQmdjx+zQ4Oggr848QSJzedvBHGqGWsWa27DqCoyeDsXPFdIMiKvKoNmDsPOVZg7F26DhB14l7/pqF5sJTWUkNuw5fQMfB03Ic/sqNu4WH5EtY//O7GuMEOe7IFZgAE2ACTIAJlCACyVFXStBon8yh2rdqB8/pPyviHoOzFGvDHPq/Brv2fRAxtAMyYu9nq+bxxjtwHPhGtnw5w6p6A/gt35MlPiKDwSKUMreQizXxrLLsRtjkym4TZsCyks7gnZwvb81s7FD+l38RObwTUq5clrOL7ZZ/B8X2T8MDYwJMgAkUKAH2gFSgeLlxJsAEmAATyG8CsiejY8IamtqDEcXXb9iJnbv/M9ilvscjOgGS96Dy5bzRtXNLVA3wkzwfBZ0Pw+Z/9yD8SiRKCf8yJEqikFP7WbUK7l/98ev3VMbZCU2a1EG1qhXh4e4ivCI9wPnz4bgQEoawsAjExKRKu+Q0jyRhzffuvfuSV6XU1DT9bgo9bSs8DPlYmSHKKhM25Kr4KQk0VVvxj3CsBH3HSrScihTkppeGPSWgeJpMgAkwASbABJgAE8gjgWb1qmgWBY2YNA9rtx3Fi31bo5PwcmRro7M2l8emMXD8PM3CdPKC0aFFfdSvVQk378biwLFgxaoztb1i3U7UremHiS91y2tXj1XfRhgs6NetlRC9Z2LPoVOKmIAsvXds01Bqu2ndgFz3MVMIffStPJOFaLmNg8cv4uCRs8pCT1osNmraL1j/w9sm+1CLj8jCdWC1CogRRiL2Hz6rjJkaeGnyPPTuWA/ODnZKe/uPhWjER/S3GPZcZ1Tx80KsWCQacvkG/lizQxkTLSibv3gL3nmtp9JGfkYeVSzA4qP8/CsUXlv6VsA7tKwP37JuCI+M1ggUSajy0qTvcXSt1vImeVJrP3h6toXM9DuoGeCDiOu3sO/wGWlCuV3snB+zH/LWt5rfHs2re5t6KG1ng4hrt7Hz0FnlGEcLt0dOXoBLu7+TFm03Fgssb9xpidv3YjXHyUZ1q6O8V5ZQwVEYhjEUZO8M6rJSRjwUqevI8dMXI9HhhQ/kpLQNqFgeLRvVgK0w5nLkTCiOnDyvlAddDEePV+bg0KqPJcM1csHMb9Zpxl7N3xdDnmkLTw9nYfTlHo4HXcY//+6Tq2OG8ITXqXXtAltcyscVBXWJj8TGxkpCG3kiHTt2hIuLi5QkkRB5F5K9GJHAh+KUZyzMmDEjm/iI6jdt2lTa99SpU9KWBEWmREXU/rlz5/Dss89quvLz85O8GNnY2ODEiRM4efKkUn7x4kU899xz2L59u+b3o1QQEX1vRC1btoSPjw/Cw8Nx8OBBpSqJkEaPHg3yDkWB+iUeFDZt2iRt6Z+yZcuibt0ssWPlypWl/JiYmGzekmhcDRs2lJ6pXb58WRJKRUVlGXeivt966y2sWbNGaZcjhUvgYli0psPAqn6adH4l3vjgF+X6j9qkY3lPIXbyr+ApDHIl49jZy1j7736lDp3T5/y4AdPf7Gd0CLKXEv0KVkK8YSg87nlt4bId2cRHTevXFN6WKiExKQWHTpzXCCronsNLnKs+f2eQoeFIeXTuo49+sLDIWjBX3K6t9cfJ6ewEQsK1or664l4qvwN5PuoyRCvoo2us1o1rSSKdoNBr2H9M64mJvv/NG1RFo9p+RoezevNepYzuUTu0aoAyzqVxQvw+1QJ/ik//9m988e4LUv28Xm9++uM6zW+F7hmf79UW1SqVFYtHS+FSxA2sWLtbEbDTtfvrH/6KXUKUqB8GT/hG85yByls1CURrcb1JnsQ27TyCsCvXld0Gj5mLU5u/RCUfd8lzGxWoryPJg1mD2ln35HR8Kk6BDCUMHv+VZkhD+3YE8Yd4eRV2NRqrNx9QRGnkpe0NwW3Lonc1+3CCCTABJsAEmMCTQiD9VpYh4CdlPiVtHmaOTvCa+SspgZShp0WFI+nUQaTfvgnbus1gWa2u4mXI3MUD5WZ9j8gx2vsjxw7ds4mPMlOF0eZLQcIbkgMsfIXBEtGHmbNxgyvKAHIRUYuP0qMikBpxAeYunrCoXFMInLLuJckzktdHC3DlpYJ5Z5GLYea6Cv8Oco2KKzIBJsAEnjgC7AHpifuT8oSYABNgAk8uAfJAdCHkMsIjIjWTJMFNgl6epsLDRGk7W7i7u8HJyQGWYuFd1YCKaNGsDmpUryg8/qTDydke0dG34eBQWnohHReXIImPctu+oT4LIs/c3BzW1lZioY8dnJ0cUVm8LG3SqDZq1fSHp5cQIMUniQV4DtI8HOxLIyLi2mPNQ/Yw5eRoDz9fL8FP63K4IOZIbVqWyhRCMcBevPAxLyVUOcU8kHH4NLGQk+RejyMQItGRs5i3q4hYqeYtiY8es+1ijpCHxwSYABNgAkyACTCBAiXw6sB2WCysmdPieDms2bof9KFAi/faNKmJVo2qoUX9ynAwsiBe3lfebtx1SrMwnRZebV/2Acq6O8tVpO3m3WfQ6+UZSt4nX69A/66NUaFs/ry4Uho2ESEvP3/OHyvVeG7sfGWhU83qlZGT1Xj9Zsnr07yf/1GyaYHYul/eF/yqKHkUIYvQzftNURZvkeeWVf8eFXPPEjxpKqsS1N7sKSMwSvzd5EALnlo9/4FmsdjGnacwuHczuQr+2vyfEqeFZCc3fAlvT+3fYsro3ugw5GNlIdj839YXmACJBpNXsQCLj5Q/YYmN0MLBxZ+P1fwejp+LQIdB05RjEC2cvB4do/l+/rXlsEZ85OlWBn8tnKQRsoRF3sSzo74wuFi4IIDdvBenOcZNHj0As97qr9dVP8z5aRPIqxgFWqT5+7oD0u+XPM3RhxaikvV7OUyfMACdmteUkya3z/dsi9GDO6FO9fJCfJF7sehbs37XtDt1zEDhnegZjfe5i+HRaDfoA+UYRVb6dxw8jw7Nayj7/rU56zxBGS0b18a2xVPF8wphNUQV9h/rhjYDpyo53/y2Bc2/9lfS+R3h40p+Ey2a9latWqXpeODAgUqaRD6dOnVSBEokPiIPQ7KHJKXiwwgJar777jtN9rJly9ChQwdYPFzAcvfuXQwfPhzkBSmn8N5772mqTJgwQfKuJLdFhaGhoejRo4ciZiJvQrt3787RUxMJhxYuXIgWLVoofZCYqVevXorgKigoCNevX4e3t7ckMpK9OpHQiARKFMhL1Icffqi0QRHy2qQWVxFjfc9R77//viRS2rJli7Qv7XPp0iXIIiZNg5wocAKhemKJiuXd871POgepxQv9u7fG4i9Ggby8qEPY2D5o1vc9RXR74ORFdbHROF1zfvreCLRsEAC/cu7ZzhH6Oz7KeS02Lgkffb1MaYqulX+aMy7bNfWa/x1H/9GfKvXmiuv1D8f2NenJSa5MHvx6d2yAGgFlFa9JxfHaWh4vbw0TCInQiV2oRkUfN8MVHyOXDFGo76v7dG2J5XPHZPvuT/1qFT5buFLp6dUp3+OIEOBbmOkWiSqFqkg78d7u189Gw8c7S5RLRd//sRNjpi1Uaq3b9p8iQMrr9ebS1duVdkiMuO239zXX5FQ4483nhIezWYrInowAkFdM9djp93ZIGEyUA127H9/wBTxdHeQszH77eQx8cz42bs+6T42MvoV/953BgG6NlHtwz0Y64yADe7XGrInPKfsXp8juw8HKNTONa8vijzTXzJQ3fXw/DJ74LdZtzRIWb993HCER0QgoZmIqGisHJsAEmAATYAKPSyDt/r3HbaJA9zd3cYPn+GmwbdoRpex01yfqTst+92jGOKT9xNqYtMhLuPvbV4jdtkHdbKHEvd/9TCM+ivv7F0TP/VjTt5mTMyqu3K/M37pOC9i3aIP4/buVem5vzVbiFIn+8BXE7ch6XkBpCzcP+P6wDmYeZSmZLyEzLQ13F7yPe38vV9qz8q0In8X/U7w5Wfnn7rmp0kARRYr776CIsHC3TIAJMIGngoAZLWLmwASYABNgAkzgaSBA4qNePdvhjVEDMerl5/Bs77YoX95TssppIc6HFf3K4rl+nTBm9CC88foLUl3ap7gFEh95iHHVqVMdzw/oisEv9BBWPGtI4iNbUeYsBEK1avujW9dmGDHs2ceeh+w5adXqrcI7lNZ6XnFjU5TjIfFRrFAJxQvnURR/1EDenryE56ey4mPLl2mPipH3YwJMgAkwASbABJhANgI1/Mthw6LsFovlirRwiBZH9XxpOsrUHYbAHpMx9qPF2H0kWDJQINdTb8lbyTufLVWyaCHg3j+mZxMfUYVubWpj6ddvKXVpwdYHX/2lpEta5KN5qzWLzlZ9/65GbCHPhwRW237/CMRGDpM+WSRHjW53/vmJRnxEFcs42mHh9Fc1+9CCUnU4fi5MSTYIrJptIRkV0kK2MS/qrAdG374HWtRZkIHEAiQsyimw+CgnQsW/3MfTHac3fZHt91C/ZgW8+XIfzQSCLkVp0rO+Xa1JH/p7tkZ8RIWVfDywf+XHoMXOhRH2/HdB082zHetr0nJiwoiumjEF6/025Xp53X4yaRiWzX0dLRsGSMJQ9aJPU21t2HkSu/afUKq8OfJZfDy+r2bRKBVW8fPELnHcVh+jfv1rl7Lf3fsJGtFj1zb1sy2upcotxKLz3p2bKfudvxSpxAsqwseVgiJbeO0uX65baEKeimQvP/II+vfXiv3++OMPuSjblrwfqcNnn32GLl26KOIjKiPvSv/88w9q1aqlrpotvnnzZo1I6dVXX8XUqVM1bdFO/v7+kkcitVempUt110XZGhYZnp6ekrcjtfiI6pEno9dff12zy4UL2uOPptBIgjwzyYHGpS8+ojLKnzJlilxN2p4/r/OGpingRIETuHBZey4sGAGSVpDxwbh+2cRHNFE6x77wjE78fv5CeI7zJ9Hxqc1fYUTfltICe32Bqn4Dj3peI28vJPCVw9J5b2UTH1EZnafV9xyUt2J9lhCA4sbC7j9m4sNxfVCvhq/ERj7fFtdra2Pz4HwIj6/a+yMf7/x9x0UGJkjYJgcSZ6+Y94bB66OZQrQ+8vmuclVJaL90jenvI11PbVsyVSM+ogbIMAV5FpIDeRWi+/G8BjJqof4tvT64m8F7RjLeMfnV3prmL0feVtIkRnpvjlbs/vf372jER1SZ2pn9tk5gTHm7DulES5QuKeHIad29Nl07qwX78hzIs/RH47XXL+dCtN9JuS5vmQATYAJMgAmUdALpifHFdwrC0G25T76HXfs+ivgm3wcr+rDw9YfHB8ILemOdgZF878dAg5ZlhZGilt2UkuTTh7KJj6gw434MIoZ0AAl+5OA2drochevAl2DmWEZJx//zq0Z8RAVpwpvS5RfaatpQdnjEyPVJgzXiI2om5cplJO7QXWeT16VSdqUfsYfC261Y/w4KDwP3xASYABN4KgloTTs9lQh40kyACTABJlBSCcgejewd7DRTII89JJohz0UUbIXFUBeXMuLlelU0a1IbdetU1dSnRClxc+zi7Ch95EJba0ucPReK2PtxiEtMQGoK+baB8DyU5UlJv195v/zapiSnIj4+AfGJiXiQkITUNLl/O/GCvwIaixc7LZrXRQVfb02XZNTUy8YFXp5Z1uFIsBQVdVOqo+ZibB7JSSmIjY0X/SaA4rIHKJoveaEqqJAsXAhFpWQiMjkDbsKSsCy+cTQHKtuVQkK6OW6lZCCRXA0Vw0Dio5AHmQhLSkfiI7z4oimRwyNL8Y+j8PrkwFdpxfCvzENiAkyACTABJsAESjoBWiB+Zss8zPlhPZb+/T+T0wm6GC55GFm4bCPIq9EXU4ahR9s6mn2Onr2sWZg+fEBnuLnYa+qoE4N6NMXMb3yVfU6c1y3gUdcrCfGfVmxShlm7WiWDi4/kCjUqe2Nw3w74XrCkQFafaeEXCYoMhcHPtEfd6r6GilBPiDjU4d597T1KjOqe5eCRs5LXFRKf6YcR/VvC3S1LwGEuLHCXtrPWr5Lv6Zw8lrD4KN+RF0mDH7w1yKiXgQa1K2rGdEeIW+Sw6/AFjVej0UN6Zlt4KdclD21vCTHT1C+WyFkFtrXQ8/Tz05870DiwUrb+aMH1Pz++J7yeZS3MrBmQ/XeXbaccMurWCMA7r3TPoZbh4gVL/lUKSKw1403tQkilUETIInvLZoEgD20U/tywCz/MHCn9Hel5kTqs2ngAbwxub9BL3meTX8Bz3bNESB5lHNW7FVicjysFhrbAGw4JCQF5/ZFD3759YWVlJSelLXlAIrEMeT+isGfPHty+fRtubm5SWv3PX3/pRM0tW7bEyJEj1cVKnIwSkpho0KBBSp5+5IcfflCynJycMG2acQE3eQ1q1qwZduzYIe2zdu1azJ8/H6VLG14kQ56VjJWRCEkdyGNTXkNsbKyyC3H7888/8fzzzyt5cqRmzZr47bffkJycLGU1bdpULuJtIRO4eTfLo5XcrU8BeAf1dHVEv26tpC48XBxB16bGgqWVpVKUplqkpmTqRb6e9hK83Jz0cg0nH/W8limMXX39i84yeZe2jdCznfb3ou5xQNcmeF2IA2QPNYv/3o1Xnm+rrqKJjx3WWxLSajIfJorztbWh8XIecE/1myKPPDmJ4vLK7A89QdtbL/XMJvBWtzl9wnP45U/dddnx05ckwZ66jjr+6aQX1ElNvEGtShrPnPfEtbSp+2/Nzg8T9HsiL2i0pTCge5OHJdk3lg89CMolaeniJdDDcPj0ZSH2uionMWpwDzSpk/0amSrQ/WiHlvVB3oAo7DsaJG1L2j9x8VnXIzRuOr4sW3dQ441Ynk9gFR+sWvguHiSnSFnNxXMYDkyACTABJsAEnkgCqVnrd4rj3KzK+cKqduNCG5pD5z6IP7y/0Ppz6iCeF6qe2d1ZOMto32m3biD51H7YNGgj1bFw090Plm6te+6YKQRlN776yGA7mclJSFi/BPZ9XjJYnpfMtCuhSDxqWJT/4PRhlO48QGnOyt0LyRGXlHSxjBTj30Gx5MWDYgJMgAk8QQQs6OGK/ku0J2h+PBUmwASYABN4ggnIHo1q1vTXzPKcEA2t37ATCRGRUj6Jj9q2aYJmTQPhXdZDU9dUokwZJwTWCkDygxQEXwjF3ZQYqbqxfk219Shl0Tdu48zZEFwICUfElatIvZ/1AMPZyRFNH4qP3N2cc2zaz9cL/ft1RlkxdzUXY/OIunYTx46dw8XQcETdiEYaufQphBCTloFjoq8MmKOpWLPpY24m9eojPAH1LmOBspYZ+PduGiKEwKc4htviz3MwNh2n4tNxPzXvIil6PmIm/jEvRddmxXGGPCYmwASYABNgAkyACTwZBKpX8saiz17Fdx8Px45D5/Hv7lPYfVgIVS6GG50gLSx65pWZWPPjFM1iv5BwrYfQV4RV5pxCrw6NFQES9VkSn81dj866N5LnOnJARzlqdNu7U0NFgESVzodFZfPsIu88sFczOZptay+EQmRp/sq1aKlMvQiKMloK77Dy35IWRbXo+x4G9WmPIX1aolmdyspzUBJwkCCssIMxsQCLjwr7L1Fw/Q00sYixbnWtgC5WGFCRw9kLWc8w5PTYYV3kqMHtiAFtCkWA1LJ+FU3/i1ZuxengKxjevy2eF3N1cdKJDJrX8wd98isM7tNa+c3mtc2LITqerRoHCuM0WmGHfntdWtZVBEhURt7VSGhFQslq/jrh6MmgEAR2eRvDxXFvaJ8WkrcMuS0SMtGnsAMfVwqbeP70p+8paPDgwdkatrS0RM+ePaEWF5EXpDFjxmjqRt/MOifKmb169ZKjBrckbCJh0f37WuGHXJnEUXJo3ry5JIKS04a27du3VwRIVE6ei+rXN+wtTd+rk7q9wMBAdRJxcTpvL5oCEwkSQy1atEip8cYbb2DdunUgvh07dtSIvIgth6In4GyvO4/QaHIj+snrqFs1qpLNM6G6Dboej7oVgyWr9+Grn1ari0zGyQNI7w71TNZRFz7qee3Kda0Yr1tr032aC+NWHVo1wJqtWQsAydOrqTC8f9ZCPEN1ivu1taExP+15duI+RxafFcTvKSRCd84hgVOPtsbFcPS38HR1QKO61XHk5HnpT3M+PMron6h+rSqSd0pjFQKr6l1LJyTmWYBE165/zNOeR/X7uxMTj20HzmHijF/1i5R0WMRNJU6RXh0baNL6iSVfvIErwnsUBcfSOu/A+vWKc7plo2r4bul6ZYjDJs7F6i2HMLxvW3RuVQs2KgGnMa+pys4cYQJMgAkwASbABAqUgEUZ1wJtX79xc5fCfR5mVbmGMgQSDiWePamkDUUS9mxSBEiwFtdi5hZAehosPMsr1ZPPHVPihiKxW9fkiwApOfiEoealvAenswTrcgUzWzs5ylsmwASYABNgAsWKAD1PtWDxUbH6m/BgmAATYAJMIA8EyCMPiY9at8j+gmPn7v+UlhzsRb0alYSYyB+OjroXmveFpezwKzcUrz5OjvYgsY6Tk1C/iOAstjVr+CM2LgGR16JwNyZGyjfVr1Qhn/45H3wZ4RG6lzHW4uG9g4MDKviVQ5UAP8Xzkf48LIRwx8bWWhq/p7uLNJ86tf2leaq5kGckTw8XVK1SAU4OpWHzcDHOhZAI3Ii+jes3b8PydtYLkXyakslmEoWu6FJiBkqLF6Q1bLPER7SDo7j3r/nQ4nJUihkyxX+3haekx/WERBofEvrYiX9chciJ0neEcCghI0MsAoXoxXCgodA+TmJc1ma0V1ZIEOOPEN6briVlINno3nJt3ZZaoGbsxbzdxTj8hesn8oAkh1ih/4oUnp8uPsgQXqCMjUquzVsmwASYABNgAkyACTCB3BKgxejk0Uj2ahSfmIwDJ0Kx67/z2Lr7BGiRuX4YOv4r7P97tmTBmMr0BUiGPO3ot1GhvLsmixYUVigAS++aTvI5cUG16Iyarl/LL8ceKpbXemu4EHbDqACpnHeWN1djjdL9i7EwQogiVvyzQ1l0R4vvfly+SfrQItHmwituxxaB6No6ECRGK4qgLxZg8VFR/BUKpk/ytGNro/OcoN+LsxGvX1TvUoRW0FjJV/ub0W/Lo4yDflaBpMmqPFmJX7Vpj9L+sdPBoM/YD75HjSp+aNOoJjq1CkSnFjVzFPoojeQiUquKbhFALqorVZKEB2vytCaHvYdPo9vIz+SkwW1klK4+VYi8fk8IkLKqvvFid2mu8o7U9owFK6SPj6c7WjaphQ4taqNbmzrSIlu5XmFu+bhSmLQfv6/09HTJM4+6pbNnz4I++kH2fiTnr1y5MpsA6VLoJblY2jZq1EiTNpTw8fExKEBKSUlBdLRucfmBAwdA3plMhWvXrmmKIyMjDQqQSPRkIzzVGwvOzs7GinKdTyIjPz8/hIeHK/ts2bIF9KHQsGFDkIcoqkecyCMUh6IloBay0kguXbmlXGsXxMhIPLFlzxmcPB+BiKs3RH83FGF7XvurWb1ynnZ51PNacNh1TT/zf1uPjbtML447fvqiZp8YIXp2Fu9TDIVqJjxClYRra0NzeprzXF2cEH37noTgTkwc6D6XjDjkVwhVvbOqXtVPHEd17zKM9VGxnIciQAozIUAqn8N9salraWN9m8q/Kzwordt+AsfOhGUdC6Ju4pow0CcLuEztG6p3T9yqQRVT1aVrRBJjFXQo9fBdWn70Y6Z3juzasrbkHVrt+Wnd1oOgD4XmDWuhbZOa6CLuC5rW9c/VdyM/xsltMAEmwASYABMoMgLCaAjEPTSHwidgWV53L5Z+V/cMw9hIUq9e0RTZBlTHg+AzKFVG9x4iNSJYU0c/8SAs+/si/Tq5SaffMT7ezJL4faLfAQcmwASYABN46giQ9og9ID11f3aeMBNgAkzg6SNgZmEOEiGR+MicLFk8DCQ+WrV6q/AwdFnKqRpQUfIURGIdClS/WtUKuH3nLg4etJXyCvOfOCF8Cr10RfJ+9CAhSQiJHBAYWA0N69eAq5uTMhT9eZS2s4WHmwuqVauMNm3qo1LpckpddSQ+PlFYJI0AeXqqIQRasgBJXacw48lC9UNehG4KcVFSRvaXVuQJqZeLBTytSmGr8IR0JenxxDjiOggkO/K2NkNH0S71uDMmHZcTM5EivBCRCMlQIPGRj40ZKoqPvU4nhXQhOkrOEB+xFZtcBxIf2VCb1uZo52yOevbmKGepmz+Jj9bdS8PpuAzcEnEOTIAJMAEmwASYABNgAgVDgBZldRaL5+kz663+uHbzHr74cSMWLF6ndEgLkb77/X/45qNhUl7YFd3LIvLKk5vgJgQK6nDl2p0CESBl5OWiVD2gXMRD9Tw/+XrnbFHR1TnL0IPc/JWr2sX+cj5t7WwefYFco9p+WPfL++j/+megBXfqQH+/LbuOSJ9JMyEJJ8YKYcHLwpNMYRtpksUCND51XD1ejpc8AhYWumcOeR19aKROgESiFguznBfFV/L1RtgV7aLkvPabm/pLv3wdluLZyop1O7NVJ49j9Fm4bCMkTxCdm2PauL7w9829B+psjT7McBQW/B8lXNQ7RtGxYNse0wu19ftJStYtIBk9qD1SklMxceYv+tUkoRNxkdm0bVEPU0c/i3ZNqmerW9AZ6mOJOl7Q/XL7eSewc+dO3LlzR7Pj5MmTNWljiaCgIAQHB4vnftWUKmFhYUqcIq6uOZ+XHR0dNfvICbX3I8ojL0l79ugEiHI9U9ukpCSDxY9zjDTYoIFMmtfGTRvRr28/iZN+laNHj4I+X3/9tcSJPCNNmDBBMvqkX5fThUPARU9QeznS+DWiqRGFX72DPUd0C8a6C1EoiWjlQB6OPvx6FciTX36F0nkUdTzqee3CJe25ns79eT3/JyalGBUgWVsav34pKdfW+fU3fRLacdG73wy7ehOBVXzyPLUDJ0MRejnrftdcGL0b3DvLS22ESjTv45nz+YY6dlHdC8qebA0NyNbq0e8DDbVnLO9BUirmL96CT79dmSuxkaF2wlQcqNzO1spQtULPcxPv+2TGicmGz8fGBpWaKqzhqYKbs/ZawdHBBjuXf4huI2bjTLD22oN2O3D0rPSZ9e2fIO9Yw57rhPde6wHyPsyBCTABJsAEmMCTSMDczh7pKXefxKkV+zmZuesMi6Xf1XqmNDT4TGGsSB3MbLKuT0pZ6oykpN+7ra6SPZ70IHveI+SkxzxZ3xn6HXBgAkyACTCBp5OARYaw8s8Wvp7OPz7PmgkwASZQ0gnEC6t9586FZpsG5VGZHMyEwsNSePuxEh6EKNBD9MTEJERevY5z50PFy+iHbQjRSMz9WCE8yZQWn1F9NzdnuLiWgYWV7iWcsX7l/vJrS/OIjLyO2PtZi+ZK29nBv7KvWGDgB0eVxe/7sfGSiOrs2QtS17bCkqhrmTJSvE5d41bXEhOEAOmh+OrevftwE96SKEQJC2/XrkYjTrSbmqZ94SBVKKB/aH3kA8GeBEhnhTskGzMzkOiIPCBRcBDbGpI1PXNEizrmQrRzPzUD5DkpJReiH0tRX2h7YCfaoI+1SFsIoVFl4XGokSggyc9d4QGJwlXhxSgu3bDYx1bsW8nODFWFlyYn1Xowck6UllkKxpwUUfuiS1iLnhzEV9FOvLQT2ichPhIf8R31F+01EOOoYks1AfJ8dE0Ijo4mZEjio4gkMVEOTIAJMAEmwASYABNgAo9E4FRwJKLvxEr7ujiXRsOafjm2U86jDOa+PwQtGlbDwLFzlPpHzlxS4mqBi30uF9XcE55Y1cHTXWdcQJ3/uPHY+ITHbcLo/rdjtHOwL53zQjGyLq0OHibmTdf6jxNaNaqC8L0LsWjVXqzcfAD7Dp8x2ByJJka//x3Oh17DV1MHG6xTkJksEChIukXTtpXK6ImhEWRmGr7PpLr3Y3XPMVLSc3cvnmbkvtVQ36byYuJMv0C3FJbUl345Gm+N7IHvlm3Fph1HFMv66nZJ5Lds7Q78u/sI9q+enS8iJHX7uY3HxuZtsWVu2h0/vAue69EE3yz9H9ZtO4TgUK3lVLmNXftPgD6rFr6LZzvWl7MLbcvHlUJD/Vgd/f7774+1//LlyzF9+nSljfh47XnZlJcheafERN0xR86jLQmOCirkJECi95X5ETw9PLF3715s3rwZy5YtkwRU+p6kqB8Sgc2fP18q37Bhg0nvTPkxLm7DMIHAahU0BecvXdOkc5tYsGQL5i1ao1Q/sPpTRYB0MTwaTXpPMio0IA+GgdUroWFggPCKdAsrN+5W2ikOkRhhqKwoQ0m5ti5KRsWp79pVKmjuf4JCox5JgDTuw0WKV2ASmT/fs7EkkI+JzXpfRXO2t835PpDq3VPdC5IwxVigd3mmQoYxq3GmdtIrI0+ZzZ+bZlBAQ1VprgHiPVzDQH94uDrhE+H10lC4FZP1fIHK6BhSXEIZldiLnlekixdWufFSReO/eUf3t6W0WjhGaQpewjji8XWzsX7HSfz29y7s3HvC4LGVvHDNWbgSOw+ewY6l75v0EpvVMv/LBJgAE2ACTKDkEbBwKoMnTUxSYv4Kqbpnf6VsS+c4bMsKfpo6Dy6dz0pnijU4pbIW/ZSyNS2ksa1ZV9PGoyey1iQ9+v7Fa0/6HXBgAkyACTCBp49Aenq6eE4kFvdyYAJMgAkwASZQEgncunUb6zfsxM7d/2mGTwIhKjMWSHwUIawEXo2MRnJSslKNbvNIfEQvu+n8aMwCtrF+lYbyKaI/D2trS3h7usHbywO24iWIsZAiXqDcuXcPN2/fRdID3fz06ycIAVLIxcu4di0ah4+ehuVDkVWysIYYK8RH8YkJgo/O4q/+/gWVJi8//woPR1GpZuhdxgI1xUInCtKrJ7EQ0Vd4QOotPBZVtsnAf3HpCH+QjnuppZAkREimAomPAuzMESCEPhVtzOEqBE20rtFRCIpkj0NdRH8ulunYdCdTCJAMt2ZvUQo1RDuBQoTkJOK5DdQXeVxyEeOvIwZDIiYPsT/1byEKyZuSt8rzEYmP1rLno9zi5XpMgAkwASbABJgAEzBJ4M1PFmPvf6elOrQ46Mbhn41e7+s31L9rQ8lTDolVKBw7Haws4vEr7yHl0T/RN7WeDJQCvcjVG1oLdxXLu+vVyJ9knGqRV/60qGulko9u3pR75fodoxbV5b2u3rgnR6Wtf4XceYzS7JSHhK2NFV4f0kH6xCcmY9d/58UnCFv3npS8taibmv/bWnRqWQvdhKV8DkygqAhULOchLIZn9U4L9nITZOvmualrqo6+MNJY3Xo1fPHTzJdF8csIEsK9HQfPY8ehM9kWHtJixxfGz8fhfz4x1lSB5leqoD2uvvVKP7w3qlee+nSwz76gtqy7s+Qhj7zkXY+OwfZDQdhx4Cx27j8leUJSd9B/9Ke4eXQRXJxyXgSh3o/jTz4BEviQ2EUOTk5OqFevnpw0ut21a5dStnr1anz88cfKtUyFCloBx/Xr1016QaLnnxcuZBkyUhp9GKlUqZIma9SoUXj77bc1eTkl7O1NL9rJaf/8KKfnut27d5c+qampOH78OIjh7t27cfjwYU0XJ0+exIwZMzBzpnCPyKHQCbRrqvPmRZ3/sWYHZk8akOO1pf5AN+16eBIVBSQgaFCzolJlyIQFmgXyARXLY9QLXdCiUVXUrFxWLIzXeS75eP4/yn7FJVLZV3vdvPanqWhePyDXw6Pn0s4Odrmub6giX1sbolI889o2rYmFv+vOM98t3YKB3ZvkabDRQohyMihE2ad5k9qKd85y4ppVFmJfu6W9t1V20ItcU90rV/Qtq1dauMlpkWD1JwAAQABJREFUc1dpxEd0vBg9vDc6CU/Idar5aq7d9h65KARIhsfn66273qRr39S0DOExtOjX3Xi4OGkGHCU8O/t4u2jyjCWuRWv/nq56Hurk/egc27tDPelD8z5yJgzbxTXx9gNnNOI3qn/k5Hl8MG8VPn9nkLw7b5kAE2ACTIAJPDEEzN3FM/KIS0/MfErSRNKiImHu6SsN2byM9n7J0DxsKtfQZQvRUUZclvA6Iy4WZo5ZAhqr8pV1dQzE7Bq3NJDLWdLvgDEwASbABJjAU0eAHB+J9a65Xzj71BHiCTMBJsAEmECxJpCQ+AAJEZGPPUbpXCjOh+Ykys3FaTG/+s3rwFOE56a7wqra3bsxcBAvDO0eWpdzKG0Dn3LeuCMWKJEnI3PhWcfd3Q3ly3mhdGnjLxZT0lKRIhY93MvBsqnMx6yUmRDQFHxIFK6QZG8/ZS2zLJ/KnpDoz0MekUiUZC+s4ZGjZAch4LkjXnI8SDf9x3MT4p4adqWE5yISIQkhkJ54iDwOpYkFGOTByJSUiTwnkXDIUwiJ1MFRCJwqi/YBMUADgdiRxyVva3PUdxAelGzM4CnGRMIodaBxRKo9HyWnC2GcugbHmQATYAJMgAkwASbABPJKoKa/jyJAosVBh09fRpM6lXLdjLeHSzbRCu3s7+eltEHtxghjCDkt7jtyOlTZx8fT/ZEXKaUKy0LGwh3hoSgy+pax4sfOr+KnfakXcvlmjla1D53UzZsG4K8nYnrsQZlowN7OGj3b1ZU+ePcFhF+9g2lzV2LFup3KXrv+C2YBkkKDI0VBwL+i7nhC/Udev2tyseA1sZgwtyEnj0qngsJz25RSr4Z/OdBnzNCO0oLLtf87jjemLQQdCykcP3sRD4RRE/WibmXnAo6QUIgWk5JHJgrRglUZR+PPRx5lON6ezhjyTHPpQ/sfEMc4tacAyqNzTddWtSjKgQkoBP766y8lTpEJEyZgzJgxmjxDic6dO0siGiqLjo6WPPy0bt1aqlqxYkXNLleuXEGtWsa/e6GhoTDkEYga8fLyEoaPbJXyW7duwdnZWdN+SUtYWlqiSZMm0uedd94Rhpdi8dNPP2H27NnKVA4ePKjEOVK4BEioWbtaJUUQQMfuub/+i4/H9831QP7dexYhl68q9Vs3r6N4/CDBKJ2T5FC/VhVs/30qHIx4L70UcUOuWmy2VSp6a8Zy825cvp/XNB3kkOBr6xwAFXGxvqjvwNGz2HX4Ato2rprrkX31yyZN3Y4tApV05QreigApNPy6km8sQgKVU2d0YqaKKiMexvYpyPy1Ww8pzdP14r7Vn6JmgGFR1EUT86tSSfu7DL92CwEmjGwsXbNfeOfNOtdUEOKlbz4apowjPyNqIynU7pptRzH2xc656mLT7lOaerkxGkKiq+b1/KXPtDeeRWxcEhYu/x+mfrFEaWvP4fNKnCNMgAkwASbABJ4kAtZlfZEIvpcsir9pyuVgWNdrIXVt7uoBc/JGdd/4s1LbVj2UYWbE6zxZpt+9oQiQLGuYNg5jW6eZ0gZHdATod8CBCTABJsAEnk4ChbGO+Okky7NmAkyACTCBYkvAzs4GFXy9Ud7HE9Y21pIbHAsLc1haWsDSzMKk96OinNT9+7H478hp7DtwSnh40t08u3u4ok3rhmjapC7KlHGSxEe9erZD/36d4eerXcD0SOOXxFnmMBeMClO4LHtCWie8AJEgRz+4C/FOS6He6SdcGb3oYYWRXpYmPwPdLdDKyUISH5G3If1AfVBf5H2J+s5rIJEUeWwyNY7hXlbo42qOesL7EYmPhAYpW1DGcScNN8U4WHyUDRFnMAEmwASYABNgAkwgzwRqBvho9tmw44QmbSqRJDyMHj4WpFSpUcVPWdBYRSVAogqLVu9V6hmKkDBo6x6ddXb/SoYXOhna18pSq1wPCbtuqJqUt2mXduGQ0YqPWKA/7yX/7MqxpT/Xa9n4lMudFeYcG1ZV2LLvLCwCBiifm/eyhBCqKlLUr7wrln45GtX8dS/HzlyI0K/GaSZQqAQC9BYX//LXbpP9//THLpPlluIeXg7kUSku4YGc1GzThRWOLXuPa/LUiZbPf6z8psZNX6ouUuK08JC8xS2YPkrJo8jZkChNujATfhV0x9c9wksTLX41FT77YYMyTzqOJD5Ikaq/98VKJb9er3eNNtG8rj/+XfSepvx08BVNmhNMgAgsX75cA+L555/XpI0l+vbVijFWrFihVNX3WvTPP/8oZYYi27ZtM5St5Kk9Ku3btw/kQchU+PLLL+Hm5qZ8EhMTTVUvsDISVanHsWbNGoN9OTo6YuLEiRg6dKhSHhKiWxyvZHKk0AiMG9FT09f8X9Yg6laMJs9YgjxdTv50iaa4V/uGSvo/4ZlDHUYP7WpUfET1th84qa5eLOLVK2uFDv/uyvlepvvIOcr5i87ljxL42vpRqBX9PiTqG/xMe81APpj7Z47XQvIOQZeu48ufVstJadujbV0lHeCn+z6Sl+CT501f72wWohZZFE6N6At3lIYLIULimLAruvvo3p2bGxUf0XB2HDhndFRV9a7dV6w/aLQuFcxbtAmbdxyWPuSVqKBC744NNE3/+tcOpGUYN14iVyZjKivWae8/uretIxdLhgXU99qr/tU911AqiYijgw3eea0nXn2hu5J9MSRciXOECTABJsAEmMCTRMCqUpUnaTolai6Jxw/oxivWM7m/MVmX1otZ+1eFuZvOoNqDg7pnImnhl5TaFh7lULpeEyWtjti3bKcIntT5HAf4d8DfAibABJjA00kgUyxoNWyi/+nkwbNmAkyACTCBYk7AydEeVQMqIkN4yElPF8KMDMOLRxITk3Dn7l1hqTPL0m1C/AMEnw+DaxlHlC/vCSfH0nBysodPeW/UrO4PKysrYXXcAlWq+AmLng6KyOb+/XiEX7mBc+dCES8evsvBVlhFc3VxAQmZCjqQ+CRReHq6e/eetA0XlhydnRzRtHFtpesyYi61alWW0knCujCNq3mzuqhT21+pYyiS23mQ8IgYVQ3wg6P4GxRW0PeElCD+3MJ1I8jTkNdDz0EVhPejXLmtUg06TTBNEm3dTsnELZFIfPju5eKDDJyOy1C8L6l2yVVU9syUq8qikvgaSx6XhM4I11MzEZdP48ht/1yPCTABJsAEmAATYAJPE4EGtf000/1x+Sa0bVIdHZrX0OQbSvy4YpdmwVQNlWilaR1/jZeNBb9twOuDO8BaGDcwFOb9tkWTPWpwV03aVELfSvvRs7qXY+r9rt64h7dn/qrOyjGebuTeytiOdrZWIOvxsjX5jdv/w4WwG6haybABhJ3/nVes2lObo4f0hIWZThxhrJ+85gdU8NDssvrfIxg9SLv4Tl2B7gPl4OHqJEd5ywSKhECbBlU1/f604l+8/XJ3kJcB/UDimIVLN+hna9Kebs6a9NGz4Wgnjnv6YepXf2kWYuqXk5X6Q8ezFl+u3rwP86YNUZ6b6NfVF0p6uTnqV1HSBW1so13T2spxhzzCLf57L14e0EbpXx0hcein365Uspo3rCW8TltJ6cq+ugUKZ4LDTB7rrPSO/R6uxuevdMaRp4pAcHAwTp8+rcy5ZcuWwpCQu5I2FenTtw/ef/99pcqGDRswd+5c2NjYSM/tqlSpgosXL0rlJEB67733oC9MosKjR4/igw8+UNoxFGnVqhVorBTI2xKJpoYNG2aoqnhmeRdff/21UtawYUPxbDJ/PY4pjetF6CWnOpDnJk9PT2nMlE8CpGeffVZdRROn551yKFOmjBzlbREQGPpsM8yY/yeuXIuWeiexQqPe7+Dv798x6bU0+k4cug6fqfFU2iCwGkb0a63Mwkw8T1YHK5VAV51P8d/XHgCJdotboGuBujUCcDIoSyi3evNeXAwfAH2vpPK4tx8I0hg9aNe0llyUpy1fW+cJV7Gq/P7YPli2docyJvKC1G7wDKz69k14uRm/7yGPjn1ema3sR5EJL/fRfNc6NKuJr4VIUA6f/7gBy+a+Lic1WxK+zF20UZM3ckBbTbogE3qnCZhJ75N0PVpZ6+4HdblZsdMXI7Fpu85bkn5564bVNM8CFv2xDZNe7iG8f1rqV8Xm3WeU3y8Vdm6tE/boV9Y/t+mX55RuJJ59eLqVUY5ldP06ZMJC/D53tNF78Huxieg0dKZyDKY+Wop3kCRmkwN5NSUPzrKn5VWbD0kGCORy/a36uriMi/HvnP5+nGYCTIAJMAEmUJIIWFUxfk4vSfMo6rGaiftx6wpZ651yGktmZgZSrlxG3O5tcLtzA+auWe8j7Lu+AOdThxGz8R9NExZuHii3cK0uLzMd0V9/rKRvLpiBCm2Ed6SH943eny/F1Tf6IOmCTohuU6UmPGf8ouzDES0B/h1oeXCKCTABJvA0ETD+VOVposBzZQJMgAkwgRJBgLz5kFef2+IlYLwQFaWkGba+eSkkEjt2HcLVa1HSvG7dvoPNW/Yh+tZd9BWW35xqVJLy5fbiYuNRysxMCHvsJYGSDIPER6tWb8UxsdDm1q3bcrYkPmrftikq61lRVyrkU0TcOyNDCK1CLkVgz54juH4jGuQF6d69+0hOzrLES11ZW1vD090FVvXFCwCxMMjM3CJXno9IRJWbeVhbWsHB3lZYEC0DX+E1qrCD7AnpkPCEbGtWCgHCe1AnZwv4670syu24SHx0Uwh+zovIofvpuC6ESBQShNXnR/F8lNt+9eulibdf8WIswQ8ysUOMI4IGJkJhj0N/XJxmAkyACTABJsAEmMCTSKBxYCUM6dMBv/+zXZrenZg4dBn2EeZMeQnjhnUyuBCHrK6P+fA3rNumsqYn9h7Yq7mCyM3FHuPFgqxPFqyQ8mjRZJfhs7Hm+4lwdtAuvv155W7M+vZPZV/ypNS3c30lnZsIeewJDs2yME2LyOYKQdOE4V2UXSOi7mDA2Hmg+eUUSttaK1WOnDwPEi6V98r94ts57w1Fx8HTlDbaD/4Qmxe/j8AqPkoeRU4EXUFfvUVsU0b11tTJr0QlHw+4CqMS8vznL9oAWiBnaHHm0jX7FXEC9d9SLCDjwASKkoC3pzMmjx6AOQuzhDC0ALrtoOmSVx061sjh9t149HhljvI9l/P1t/56Htpem/I99q36BB5lHKSqyalpWL7+EL74cZX+rpp0w9qVhDX0nVIejWnmwnWYOrp3NhESWU2f9e3fyr60QNHH20VJl9Yz4rJm6xF0blFTKc/vyAfjxMLbNTsUTpM++UUsxnRCr/Z1NV1djryFgW8u0AhNRzynEy42rpv1DEne6b0v/sDiz1/L5j2DFou+/dlyuZq0bd2oiibNCSawdOlSDYRBgwZp0qYSnh6eaNy4MQ4fPixVI28/GzduRL9+/aT0J598ggEDBihNdOvWDeQlqX79rGuNlJQUHDhwAK+99ppSx1jk3XffxcqVK8VzyPtSFRI+eXh4gNpUh4iICIwYMUIYgXqgZA8ZMkSJF0SkdOnSyrg2b96MDz/8UHM8qlOnDrZu3Sp1vX37dpC3p06dOmUbyrlz57Bqle7416SJYSvH2XbkjAIhQML0H2aNQrdhuoVgdM5p0f9dfPrOCHRvVxdVxXnN/OHzYDoX7jt+EW99skizYJ4Gt2jOaKUepetU96WNEr5Z+i/6Ca99NlY6kQB5A5z9wzp8NHeZUo8iKcmG3z9oKhVSYt4Hw9Fm4FSlt2de/Uzcc0zOZgCAxEcvTpyn1KPIi31batK5TfC1dW5JFb96ARU8MXXMQMz85g9lcCQob9BrMuZ+8DKa1/PX3PuFRd7Elj1nMfaj75X6FKnk643p4/tr8rq1qYNWTQKx97/TUv6fG3ZJ11hfTnlBczyma6OX3/1ZqUeVRw/ugbLuzpr28jOR0/Umifl8y3kqx411Ww/iPXFvSt91ddgoPAoPGfel5vqQylNShDW5h4E8/UwdNwjvfrZIyiFhTpcRs7Hx50ma68Sj58IFh2/k3aRtT5VHKcooXdpOuWZdv/0wZk18TsNSs3MuEmNe7IlpX+muOVZt2gP6e3w4ri+qVy6rtE0eoY4IL3Fvz16iuTemLsYM1Z7zKa9eYAAit92iKLbsFN6chLCqWxudsUSpQPxD4q0Va7PuHyivRYMachFvmQATYAJMgAk8UQSsazcW7l+s6CLhiZpXYU/Guk4L+Pyuu3bIqf8rg9tIIqSbM8bB++us56jiAgdu786DY8/BeHDyIDJTkmFdsz5s64p7IWsbpcnEHWuREad7d5J68zri/vkVDn1HZtURdcv/tAnp168gI/YOzP2qwczGTtmfI3oExPdf+h3oZXOSCTABJsAEnnwCGcK4qQU9bCilZ/3pyZ86z5AJMAEmwARKIgHyWkRefVJSUhFHAiTVw371fNyFld+YmFhYCGuGJBxKEB6EwsIjhDDHDBXECxMr8XLRy9NV8oJkyEvQ/dgEXL0ajf/EC5TjJ4IQHhEpNV/azlZYJXVDYK2qaNqstuSNSd1vfsfJegd5erKyMsdx8XKITtzJ4uHFLSGkOnXmIkrb20lCI+JiYWErXlLYonxZrdVUOs/fvx+HCJUnJzrv08dR7FejRmU0amh6wY+VlYUkQCJuRRFkT0hXhbFKWzHuhHTA0SIdt1LNHmk4D4TrIRIgkcejMwlpuPlQgJTbxkggRPs+bqDX1wnCAxO1dSo+DVHJj9/m446J92cCTIAJMAEmwASYwJNM4JuPhmPP4bPKYiOa6+RZv0ofEgPVFh87OytE3byHkLCrBj2CdGnbCM92zFrIK7Oa/EoPkKcS2Vr6vsNnUK/bJLRpHojKYuFXrLh3OSgWSMoeROT9Phg7IM/P5Ab0aInp83QL3CfN/AU/Lt+C6sI4wtngcINjlvvT37ZqVE0RZFFZkz7vokplH/Tr0lQsNuqoXz1bum3jqujRoQnI+xEFmn+b/lPRoVUD1Krqi9S0dJw4F4aDR85qFm7RojMSWhRUmPBKX7z/+WKp+RDhQbZJ70kY0rcDaghGjg62OHQiBLvF9yDoYrgyBLIQ3adzAyXNESZQVASmjOqFX1ZsVhYgkqeDml3Go3XTOmJhpPDqcTsG2/YeV443psbZo22gxip72JXrqNrmDTSsW1XabefBU6Z2V8pG9GuDOT/8rfRJi7P/3X0SnVvVQZUKXrgafQ+7j5zDvoOnNb/1kS90VtqgSIWyrhqr6eSJ7vDJEGHkxQF/zX9T/D51iwE0Oz5igkSgsya/iNemfCu1QN40+rw2C51aN0A9YZjGQQiiTgVHSIsnqUwO3do3xgjVQm0SVXZu3VDxJEGi1MAuIXj+mTaoKhZwpgkh197D58Xi2rOKRXhqq22LetkWs8p98PbpJJCWlqYRvJC3nt698ybI7du3ryJAIookMJIFSO3bt0eXLl2wZUuWt8U7d+6gc+fO8POj6xs7BAUF5Rq8k5MTPvroQ0yY8Ja0DwmMhg4ditatW4MEPiQCOnv2LEjgoxYf0RgKWoDUtGlT/P13ltjx0qVLaNSoEby9vSXvUCQievPNNxUBEo2NRF49evRAgwYNUK5cOYnD/v37JU9QaiDDhw9XJzleBAQ6Na+JhZ+8jtHvf6fpnRb3v/tZVhaJ8RMfJGuu59WVaf8alb3VWdL5J6BiedB1IQUS3ns3HImenZqJa3UvHD4Vku16VW6Azg/D3v4eTetVEcIJnThVLi/MbYsGAXihdzssfygKpvk0fXYyOov7k9rVBJekVJwU195b9xzVDIsEXCRGedTA19aPSq7o9/t4fF9xfxitCMlpRHTP9sK4z6XBkeEGTw9XRN+8o1x7qkdN5b/PHW/Qo8+XwhhF42cnKdXn/7YWOw+dEUYdaqCcpwvCrt7EgWNBivEMueK7r+ftvCfvl9ttbq43O7Wsh1/+/FdqkgxXVGk/Bh1a1pcMUpy7eBX/HTuvuaZT9z3240Xo2CIQb73UTfJSOlYYM/lWeEGWvQKRkRD/tmPQqnEgKvp64FJEdDaDJjPeGqoRf1H7LYVAZ/lDD3BkcKRGl4mijis+nvC8JBZTjyE38cmv9sS6HUel451cnzyn0cfB1ka8Zw1A1I3bRp8f0LGmvxBq6oe3qd2HBlro+Njr5Rno160VGgUKQVtZFyFiisTeI0EgDurw6sAO6iTHmQATYAJMgAk8UQTsAhsg8ejBJ2pOxX0ypUplrRNKOHYI8euWwL73i8qQrWo1Bn0MhaTjexE14+1sRTfnzYCVf01YBzbNKhNrkszLVpA+6spJR3bDplEbXRZZlH7KA33/OTABJsAEmMDTScDc3BwWtJiZIhyYABNgAkyACZQUAubCww955MkQQhJDoWa1SnB2tEcFv7JYv2GnEN9cRZpY/BYtLJDt3HUEcXEJ6NyxGRz0LJLLbZH46O+1O4ToJwjkPUkOJD7q1bMdmjWpjXJlPcT+peWiAtkK7RAyxX8OYi7mQkwlBxJV0byiom5KHqEMiaioLomP6DwfFnFdvJj/nySmon1JfGRpYSFeHNkIEZIdyjjrLCnLfai3ZsLrEDEv6kB/7geCB3kK2ng7E3aP6AEpXbSRIp4FJAhx1/1HMGIpe2Ta+4j9yxzp20tekEjQdDePIii5Dd4yASbABJgAE2ACTIAJ5J4AWTte/d0kDJ04P9tCKBKjqAUphlqlRTg/ffpKtiI7Wyv8tXASBo+Zqyw8ogVIsrelbDuIjF/njDe4oMdQXXXepJd7YP+xYGzfd1zJpsWH8oJKOZMWWTYUi4pkryVyvnrbtU2gOiktRqMFaf5iIWZuw8IZIzHwfoKywIgWIa3Zul/6GGpjzLDe+PzdFwwV5Vve2y93xZ/r9yoWnGlMC5dtNNn+ki/HC89Jpu+LTDbAhUwgnwjQceqfH99Dn1dnKwtBaWHkP//uy9YDWaR3dXHWLCxUV7K1scLyBRPFwsCZSjb9HgwJj2ghpNpKurKDiJAwaN6Hr2Dg2DlKNgkq9UWVSqGItGxcG++9ln2BabsWdbBEPJ+QAwmsKMQnJeW7AInafal/awSHRWHuz/9QUgrb9hwDfQwFOnYuFp4z9AMd6+p21Ykp6RhvynOUtGD3i9f1m+H0U06AxDokCpIDeRMiEVJeQp8+fUDeieSwa9cuqU1XV1cpa/78+Rg3bpwiQqLM8PBwqUz9D7UTEhIiiYgo30x4htcPQ4YMRXDwBfzwww9K0Z49e4SX9j1KWh0hodP333+vziqQeLt27RQBEnVA85M/JEAiL1EvvvgilixZovRPnqLoYyyQaKlFixbGijm/EAm88nxbyZPKmzN+NSgykj2B6g+JhElLvxwnBKa++kVSevEXY9C8n+63Q+dDQ9fJdB74efZojaehZeI9wR4hrChqARJN5OsPXsQtYXhNPo/RPLJEBQanjf7dW+Ptl7sZLsxlLl9b5xJUMa3262evCYFaBcxe8IdGKE7DpWtM2XOs/vDJ0MQvs16D2gunuk79mhXw/cw3MGrqt0r2meAw5R5MyXwYIc+Yf/0wCeU8cu9xV7+N3KZzut78/J0XsHXXMeXendql+2v1PTblkVBnyddvYeqXy5VnBSSsoc/QZ1oIAZI7rC0tsOX3D9B39OfKMwZiSvfEhgIZNHl3VM9sRZ1aBSriQiqU7/GH92//SAIk8ha3+rsJGDBmXrZrdjpukNEUY4EERd/NeMlgcfO6/hglDIp8r7q/loVNBncQme+9/jxasVdQY3g4nwkwASbABJ4AAvaNW7EAqZD/jplpukU+Nz5/H/YHt8Nz+k8oZSm8URkKZLT51zm49Zvu2lVdLVOsqYp8YwAcO3SH25szYebkArGoKqsKrbmKuY34LSsRs34lfJftVnZNj8nyGk0Zmam6MUlp1RilHUQ7cshMM+4xK1MYr1EH9VzV+cUlTt9/DkyACTABJvD0ErAw9GLh6cXBM2cCTIAJMIGSQIAenpubG/fGYyMW2bi7l0GS8JR04mQw7tyLwYPEJOE1KR6hoeFCmJMB8mZ0PVr30l897+DzYZL4iLwmkXDJ2toKzs5OqFq1Eho3rIW6dbKsBav3Kci4h7sLqou+ExMeKB6dEh56ZSorhFD3Y+MNdk/zJBHSuXOXNJ6c7B3sUb6cN6qJNt1dy4B4lYRAt+RCq4NYIRyKFV6QiirIHpmKqn/ulwkwASbABJgAE2ACTODRCdCixJMbPxMei3bjo6+XGV1wpe6BhEejhnYCLbYxFqjs+KbPMXzyQsUjkKG6vuU8JRGUscWRZChADrTgST/Y2lhi3Y9v48WJC6XFhvrllB75fFfMmPgcPlu4Xim2tNQZNJAzafHX5NEDMGfhSjkr21a9n5Vl9nuwsu7O2Pn7NHy84G/M+vbPbPvLGTSXbz4ZjcG9m8lZmq2FpXbhM3mzNRXUnMyFp1t1sDAzx+7lH+GNjxYZXFiqrtu0fk18NVVY7w6spM7mOBPQEFD/DqjA0kr7nbNSfV9LWWjLNA2JhLn4fqqDoe9683r+OLHpS/R7fa5RcRF56Vk0exRGTtEJAwy11a1NHWxZ/BFeGP+lweMdiZjmvDcM7ZvU0AiQLFVzovGSBfQ1P07ByMkLDLYjz4l+6xNe7QsSS9KzG/0w8eWe2Ln/lGbBp7qOhZ7xE/1xqOvqxy0NGFkjAyyfvzMI3dvWxUsTvzHaLwmGXh7UDe+80tOgEIqs6R9Y8xmGTfwWx89e1O9akx78THt8OmkgvNycNPmcYAIbNmzQQBg4cKAmnZsECY2aNWuGgwd11pW3bt0qefmh/al82bJlkkCHxEjkpUgdqJzEOVOmTNEIbpyds3smpN/PzJkzJa9Ko0ePFoadotVNKXHyljR8+HCMHz8ejo6OSr4csVBd2+RkDFG/XL2v3F7Pnj2lOR46dEjOyrb9/PPPJW9Hs2fPzlamzvD09MT06dMVL1LqMo4XHYHeHeqhU4uvMPv7dSavL2mEdN55aWBXzHz7OdhYZb9WlWdB13qbF38ovOJ9b1DYRPUGiWv+hWLRPYmBxwrR/ILF6+TdNVv1taehc6+6cn6f11ycSmPzL+9gwZKtmDDjZ3VXmjgJssYP74mXB7TR5MsJ9bW0oXsOuR5t+dpaTaPkxS3FtenkV7pjaO/mmDDrd6zatMfkJMgz7CeThmq8QRrbgb5fzeoF4PlxXyniG0N1ySvkH1+NNSpmUl9r5/Sb0r821D9vUP85XW+SuH7b8g/xypQfhQfL04aGjEZ1q2OJEJOT97AHyamK1yhDlav4eeLQ6pl4dcrPWLlRtyBVXZcEWO+PH4DhfVsb9IL8bKf6+LVJoNHxqNvKbZzu1XeteB+zxXOBX1dsM3odLLdHx403R/QyetyQ682b9iJ8vF0x9YslcpbBLc15lvCUNahHU4PlnMkEmAATYAJM4EkhYNdKCP6/0xnteVLmVdDzCG1l2HjEo/Qbv28n4rvWgH3dRrBr2ALWNeojU6wVSw4+jsRjB5Fw+gSQmpxj07HbN4E+KGUOm8oBkrHo5EuhQl2UtTjJvoXq/oryHuZTw8kRl2BqTpfaG3+3pB5YanSUyXbUdYtDXPr+F4eB8BiYABNgAkygSAiUEguTaT0vBybABJgAE2ACTxyBoPOXsX7jHhw9fhZXIqOQIDwfmYuFd/a2dnBxdYatXfYFfQQhIV4IfYTno4TEB+KmMRMeHm5o1LA2mjYOFNta8CnvUais7t+PR/iVGzhw8KTk+Sj8ofiIRFTklcneiCcncUdM/4v5JOKm8HyUSPMRoaKfL57p3QEtmtVB+fKecHIsGE9OIaER2LLtEI4cO4vQi+G4d19nAUQaCP9ToARq1aqKMa8PRusWdQu0H26cCTABJsAEmAATYAIllUB8YjKOnbssrAtHIyT8BsKv3kSGuP73cnWCbzl3VCjvjo7Na4AW+uUlXI68JdqNwImgcLHA8RYq+nigTnU/1Bfip4o+7nlpymTdB0nC4EJwBI6fCUeSWBRVrbI36glL1Hm1Kn0vNhHnhYeQ9NQMYXzBArWrlBfeUvNupOD23XgcE3M+eS4c5y5GCmMHTmLeFVC3pi+qVyonvLCaFmaYnOwjFkZE3cGOQ+eF1eeLiIlNkP6+Fcq5oZK4D6oh5tm2ceEal3jEafBuTykBemx/JuSq8HoWIkQvYeI35YwW9QPEQk//PB+XCGHk9bs4fJqOedfh6eGMqpW80KhWpTz9NsnQy8ETocKLUhDCI28i/kEynMUziUpicWZl8WnXpHqOwhua18nzkYhNSJQ8W1cSx0gS+BR0SE5Nw6nzV8TxOes4Rf2V93ZBQEVvPNuxvsmF6/LYaOyngiPFcSVIWPi/IgzdPIC1WPDuJ+bg7+eFJoEVUcO/nFydt0ygyAmkCcu5oaGhSE5OFs83PeDl5aUsfK5cuTLuP3xWN2fOHLz00ktGx5uSkiKJmU6cOIHTp7MWa5ctWxb+/v7o1asXrKzyft1gtLNcFpDXo2vXriFVWBkmIVFAQAD0BUt3797FgQMHsH//fklARRyobsWKFUHzb9++vTDMZPj5cC6HwdUKmACdd4IvXce5kGvicxVR0XdRydcTdcU1ZmBVX1Qo56J8p3MzFLp+3rb/rLhWvYpwcZ3u6uIorgvd0Vss/vco46Bp4ri4nj99IVKcJ80lz0rF7fgeG5ckrr0v44g4tweFRMLR3g5lvVzEub0iOoh7mIIIfG1dEFQLt82YuEQEhUZJv4Eg8ZuKF95wqvuXRx3xe6pTzdeoSMjUKNMy0qU2j5+NwClxP3hP3HfVCPBB3RoVUF/8Vo15UTLV5uOW5fZ6c9fhC9J9+yXxPMBWeDb28XJDx5a1UEPcW6tD+NU7OHgqRJxP0+AvjkFN61eSxHnqOhR/kJQCOnYcPROGlNR0lPMsI11rBlYrL3lL0q+vnw4T19fXbsSIfdPgJQREVSt7GuxHf7+c0sRjz9ELOHY2HNdv3kP0zRiYCUMe3sIoSVlxX9CqUTVxXM3bIuC7whPyniMXsOe/87hxKwZJqSkoK4wpVvT1EMItLyEkrSWeKxgXhuY0Zi5nAkyACTABJlCSCES90QeJpw172y6qeViVrwDfFXsLrfsE4SHo+idvF1p/+dWRlW9F2DdtKTWXLp6R3N+yzmjTnpM/gUOvF6XyzMQ4XOpS02jdp6HALrAByn6r8zr/NMyZ58gEmAATYAI6AvSsoZR4AZFpyDqMrhrHmAATYAJMgAmUTAJR12/h6IlgnAu6hEuhV3D16g3cFsKixAdZQpycZiULfMjzUSthpa12rcrwEla7HIwJfnJq8DHLT50JxarVW3Hs+DnFE1JumjQrZaYRXtWtUx39+3VGndq5s7KRmz4M1WEBkiEqhZfHAqTCY809MQEmwASYABNgAkyACTABJsAEmAATYAJMoCgJXLp0CfHC+zsFFxcX+Pj4GB0OiXcaNmyolC9duhTdugmrzRyYABNgAkyACTABJsAEmAATYAJMgAkwgTwRiF+3GDc+n5anfQq8svBq7PvtX7Cq3bjAu6IObkwchPjD+wulr/zsxG3kODgP1wmnro3qhQfnTmXrwtKzrBB07UIpyywjJkn7/8XVd1/NVu9pyvCaNAP2vYc9TVPmuTIBJsAEmICKAAmQzFh8pCLCUSbABJgAE3iiCJRxdkTDetXQs2srDBncA106t4CbW+6t6pJ3oV4922HIoB6S5yMSH5EVtKIKfr5eknCIxkRjy20gr0+O9g4IqFIR/fp0ltqgtjgwASbABJgAE2ACTIAJMAEmwASYABNgAkyACTABJlDyCYwYMQIdOnSQPj169EB6errRSS1YsEBT1qZNG02aE0yACTABJsAEmAATYAJMgAkwASbABJhA7giQCMPc2SV3lQurllgUfO39UUjc8Q/IW0+BBNFH2pVQ3Jz+eokUHxGT+xtWadB4zfwJlmXLa/KsK1WB75JtiviICu/98bOmztOWoO87i4+etr86z5cJMAEmoCVQSoidLbRZnGICTIAJMAEm8OQQsLW1FoIhd3h6uCAlJQ221ta4dfMeHJ1KS5PMyMgUL+MzkJmRIaVLmQlPQeZmMDMrJaWrBlRE82Z1C9xTUG6JOznZK2OJiroJez1PTBlpGUhOSZWas7ayhJmFmRS3EfN2cnRAtWoV0aJ5XQT4G7eAmtuxcD0mwASYABNgAkyACTABJsAEmAATYAJMgAkwASbABIoHgdatWyMoKEgaTFRUFH766SeMGjUq2+C+/PJLLF68WMnv2LEj7OzslDRHmAATYAJMgAkwASbABJgAE2ACTIAJMIG8EXB+ZiDuLP4ubzsVcO30u7cR9eH4Au6lZDefGh2F1PBgWPpVkyZi7uqFCn/sR0ZcDJCehlIOZVDKQru8OunoLiScPFyyJ/6Yo6fvOwcmwASYABN4ugmQB6RSqampmRZ6J8qnGwvPngkwASbABJ40AnTCyxAio5iYeFy9Fo37cYnSFFOFWCc+/gFS0rJEO1YWlrC3t4WlEO9QcHK0B3kKIuFPcQr378cj/MoN3I+N1wwrIT4RN2/dlfI83F1Q2j5r8YC5EFaRIInm4eXpCgc94ZKmkXxMhIRGYMu2Qzhy7CxCL4bj3v37+dg6N5UTgVq1qmLM64PRukXdnKpyORNgAkyACTABJsAEmAATYAJMgAkwASbABJhACSZw/PhxdO7cWTODpk2bgj6Ojo44e/YsqE54eLimzr59+4TRoqyFNpoCTjABJsAEmAATYAJMgAkwASbABJgAE2ACuSJAXoYu922CjATtGp5c7cyVipaAlRUq/bEHZu5lcxxH8ulDiHxzKJCanGPdJ7WCWWl7VPz7P5Syc3hSp8jzYgJMgAkwgVwSENojrUo3l/txNSbABJgAE2ACJYYAufwzNzeHq6uT9JEHniIESHEkQBLekShYWVnAQQiQrB4KkOR6xW2r9oSkHltcQiKib2QJkDy9XOBQmq2XqvlwnAkwASbABJgAE2ACTIAJMAEmwASYABNgAkyACTyJBOrXrw/ybjRx4kRleocOHQJ9jIVvvvmGxUfG4HA+E2ACTIAJMAEmwASYABNgAkyACTCBXBIgMYbrCyNx66d5udyDqxUbAikpCOvbFM7PDECZoeNg5uotvB5lGa2mMWYKg9apl88jZvl3iP3fpmIz7KIaCH3PWXxUVPS5XybABJhA8SLA6qPi9ffg0TABJsAEmEAhEjA3zxIcZWRkSr2amZFQqeSeGm2trUDCIwoU58AEmAATYAJMgAkwASbABJgAE2ACTIAJMAEmwASYwNNBYNiwYXB3d8fXX38teTsyNuvGjRtj9uzZqFOnjrEqnM8EmAATYAJMgAkwASbABJgAE2ACTIAJ5IGA04sTEbt1A5IjLuVhL65aXAjErF0J+khBrBuzcC6DtLvCAHRmenEZYpGPw7pCZdD3nAMTYAJMgAkwgfT0dJTcVdb892MCTIAJMAEm8JgEzM1JcKSzXPGYzRX57uTV0IE9Gxb534EHwASYABNgAkyACTABJsAEmAATYAJMgAkwASbABIqCQPfu3UGf4OBgBAUFITIyEjExMXBzc4OXlxeaN28Ob2/vohga98kEmAATYAJMgAkwASbABJgAE2ACTOCJJuD22tu4NmX0Ez3Hp2Jy6WlIu3PrqZhqXiZJ328OTIAJMAEmwASIgLm5OQuQ+KvABJgAE2ACTIAJMAEmwASYABNgAkyACTABJsAEmAATYAJMgAkwASbABJ4UAtWqVQN9ODABJsAEmAATYAJMgAkwASbABJgAE2AChUPAtlUPlOn9PO6t+7NwOuRemEAhEaDvNX2/OTABJsAEmAATkAmYZWZmynHeMgEmwASYABNgAkyACTABJsAEmAATYAJMgAkwASbABJgAE2ACTIAJMAEmwASYABNgAkyACTABJsAEmAATYAJMgAkwASaQBwKukz6HjT8bBMkDMq5azAnQ95m+1xyYABNgAkyACagJmGVkZKjTHGcCTIAJMAEmwASYABNgAkyACTABJsAEmAATYAJMgAkwASbABJgAE2ACTIAJMAEmwASYABNgAkyACTABJsAEmAATYAJMIA8EPN+ZA1hZ5WEPrsoEiikB8T2Wvs/FdHg8LCbABJgAEyg6Ambm5uZF1zv3zASYABNgAkyACTABJsAEmAATYAJMgAkwASbABJgAE2ACTIAJMAEmwASYABNgAkyACTABJsAEmAATYAJMgAkwASbABEo4ActqdVF2ihAhcWACJZwAfY/p+8yBCTABJsAEmIA+ATP9DE4zASbABJgAE2ACTIAJMAEmwASYABNgAkyACTABJsAEmAATYAJMgAkwASbABJgAE2ACTIAJMAEmwASYABNgAkyACTABJpA3AnYd+sLzzWl524lrM4FiRIC+v/Q95sAEmAATYAJMQJ9AZmYmzNLT0/XzOc0EmAATYAJMgAkwASbABJgAE2ACTIAJMAEmwASYABNgAkyACTABJsAEmAATYAJMgAkwASbABJgAE2ACTIAJMAEmwASYwP/bu5Mgu67zPuDfvT3P6Aa6Mc8EwQmiZEnUkFJiWx4qsaLEkSupbOJNXKlypSqLDJVl9skimyyySqUqS9vlWJacWJIpmYko0aIlcRRAggAxEDPQ3Wig0d1vyDkXaRhAv9cDAZIg3++o0P36nnPPued3T1Vz0X99GxQY+cbvxdTv/7sN3mU4gY9eIJ/bfH41AgQIECDQSqAoiihTa9XnGgECBAgQIECAAAECBAgQIECAAAECBAgQIECAAAECBAgQIECAAAECBAgQIECAAAECGxQY/af/UiWkDZoZ/tEK5MpH+dxqBAgQIECgnUBVAanRaLTrd50AAQIECBAgQIAAAQIECBAgQIAAAQIECBAgQIAAAQIECBAgQIAAAQIECBAgQIAAgQ0K5EoyO/7Df47o7d3gnYYT+BAF0vnM51Tlow/R3FIECBD4mAqogPQxfXEemwABAgQIECBAgAABAgQIECBAgAABAgQIECBAgAABAgQIECBAgAABAgQIECBA4NEWGPzqP4q9/+UPov+xJx7tB/V0HSmQz2U+n/mcagQIECBAYD0CpQpI62EyhgABAgQIECBAgAABAgQIECBAgAABAgQIECBAgAABAgQIECBAgAABAgQIECBAgMDGBHqe+HTs+m9/HuNf/ycbu9FoAh+gQD6P+Vzm86kRIECAAIH1CnR3dXWtd6xxBAgQIECAAAECBAgQIECAAAECBAgQIECAAAECBAgQIECAAAECBAgQIECAAAECBAhsUGDzv/2PMfjFX47L//U/xcK7xzd4t+EEHo5A396DseVf/JsY+MpvPZwJzUKAAAECHSVQdtRubZYAAQIECBAgQIAAAQIECBAgQIAAAQIECBAgQIAAAQIECBAgQIAAAQIECBAgQIDARyCQQx+7/8fzMfl7/yrKoeGP4Aks2akC+bzlc5fPn/BRp54C+yZAgMCDC5TNZvPBZzEDAQIECBAgQIAAAQIECBAgQIAAAQIECBAgQIAAAQIECBAgQIAAAQIECBAgQIAAAQJrCoz9s38d+//ox7H5d38/ujZNrDneAALvVyCfr3zO8nnL504jQIAAAQLvVyBnj7qLoni/97uPAAECBAgQINBWoL9/IHZsn4zHDu6N3p7emJmdbTtWx8MXOHxof4yN+n/KefiyZiRAgAABAgQIECBAgAABAgQIECBAgAABAgQIECBAgAABAgQIPLhAMTgS4//831f/5v7kv8fs//7juPnKyw8+sRkIJIHBT302Rn/zH8bw13+XBwECBAgQeCgCOXtUNBqNphDSQ/E0CQECBAgQIHCXwM35hbhyZSZmZ6/H3Nx8LCzV7ur18YMWyOGjfXu2xdiYENIHbW1+AgQIECBAgAABAgQIECBAgAABAgQIECBAgAABAgQIECBAgMDDEKidOR43X/izmHvphdthpMXFhzGtOTpBoLe3Ch0NP/eVGPzK343uXQc7Ydf2SIAAAQIfskBRq9WaXV1dH/KyliNAgAABAgQIECBAgAABAgQIECBAgAABAgQIECBAgAABAgQIECBAgAABAgQIECBAoJ3AwqsvxeKxn8fiO8di4b1TUb90MWoz16J+cy5iaSmi2Wx3q+ufNIFUdSJ6eqJrcDi6x8aja3Iq+nbsid4Dj0fv489G35HnPmk7th8CBAgQeMQE6vW6CkiP2DvxOAQIECBAgAABAgQIECBAgAABAgQIECBAgAABAgQIECBAgAABAgQIECBAgAABAgQIECBAgAABAgQeKYGyyIlYjQABAgQIECBAgAABAgQIECBAgAABAgQIECBAgAABAgQIECBAgAABAgQIECBAgAABAgQIECBAgAABAi0EyhbXXCJAgAABAgQIECBAgAABAgQIECBAgAABAgQIECBAgAABAgQIECBAgAABAgQIECBAgAABAgQIECBAgEA0m80QQHIQCBAgQIAAAQIECBAgQIAAAQIECBAgQIAAAQIECBAgQIAAAQIECBAgQIAAAQIECBAgQIAAAQIECBBoKyCA1JZGBwECBAgQIECAAAECBAgQIECAAAECBAgQIECAAAECBAgQIECAAAECBAgQIECAAAECBAgQIECAAIHOFmg0GlGkL82iKDpbwu4JECBAgAABAgQIECBAgAABAgQIECBAgAABAgQIECBAgAABAgQIECBAgAABAgQIECBAgAABAgQIEGgpUOYUkkaAAAECBAgQIECAAAECBAgQIECAAAECBAgQIECAAAECBAgQIECAAAECBAgQIECAAAECBAgQIECAAIFWAmVqra67RoAAAQIECBAgQIAAAQIECBAgQIAAAQIECBAgQIAAAQIECBAgQIAAAQIECBAgQIAAAQIECBAgQIAAgSiLosBAgAABAgQIECBAgAABAgQIECBAgAABAgQIECBAgAABAgQIECBAgAABAgQIECBAgAABAgQIECBAgACBFQLNZjO66/V6dHV1reh0gQABAgQIPOoCtUY9Fhdq1WP29nVHd+n32aP+zjzf+gXyf6MtLtZvn+/eLv+9tn46IwkQIECAAAECBAgQIECAAAECBAgQIECAAAECBAgQIECAAAECBAgQIECAAAECBB6yQCl89JBFTUeAAAECH5pADh9dvTZT/VsOIn1oi1uIwAcskMNH16Znq3/LQaQPeEnTEyBAgAABAgQIECBAgAABAgQIECBAgAABAgQIECBAgAABAgQIECBAgAABAgQIEFghUBRFdK+46gIBAgQIEHhEBWZm5uLU6QsxOzsX9VTGr7ZUi/mFheppB/r6oq+3J8ruMjaNjsTOHZMxOjq06k7yfCdPnY+ZNF9uY6PDsW/PthgbG17XfTdv3IyBgb7ozeuWZSylijU3525Gd3dPTE6Ox6Y0T+7v6bn31+3i4lLaw42YTutfSwGq3vTsrda9nua/eP5qzKXvabtRq+WKOEvRTP/r6emJrrRmWRYxNDIY26c2x0j6vlrL+333zLmYnb4RjQ3sd3nOZa/8c6vnXR630e+50s/SUr3yeO/8pWqPo8O39zKbPBcXb1e5Wuv9LD/f/K1bke/v6u5KZ+S22fythRgaGlz1uZfyeUrjZqbn4uKla9Gd3ttq+1xe7+aN+RgcSu85vfdI72Yxz3NzIfK+8rnYtGk4du7cms7Xxs5jPc1za2Gx4uzv642htKexsaE0z0h1tvr7e++hvt9xYX7xrueKdGbK6O/rj8HB/uqs5HOrESBAgAABAgQIECBAgAABAgQIECBAgAABAgQIECBAgAABAgQIECBAgAABAgQIEFhLoJn+mLm7VqulP5S+9w+j17pRPwECBAgQ+CgEcvjoj/74e3HsrZNVuKMvBTAmJjZVj3L16nQVSBoYGIjDj++Pr/29r6wZQMrhoz/4wz+Po2+dqOY4fGh//M43fiOePfLYqttbvu/M2YsxlYI/4ylgksMcOSh06vS5GB4aii9/8dl45umDsSsFT+4PIOXw0S+Ovhuvv/F2vPLaWzExPtpy3Rw++t7zL6WQ1Lm030bMz8/HdKqI00i/wEeGh6Kvvy+6u8o4cGB3/NpXv7BmACmHj/7wj5LfsZPRaDTi8UP7Wq7bbvPL+87963FqN8/916vwUQr9vPL6W/Gd774YMzOzsW//7mrYyROn089zKdYTcXiN511+vgsXL1f3Dw30x/W5+SrkdeXKtdi9a9uqz53DR2fPXorXXn87fvjiz2I4BX5W2+fyemfPXYgd26ZSECwFjOrNmL1+I85fvBS35hdSuKwnOR+I3/7630nBoQP3b/2en5fnWz6PA+n9jo/fPt/Xrk2n4NBgPHF4fzz11ME48vRjsa1/4p7773e8cvVa9Vwj+blSGxoaiK3pvO7ZvTUeO7gnNm8eu+d+PxAgQIAAAQIECBAgQIAAAQIECBAgQIAAAQIECBAgQIAAAQIECBAgQIAAAQIECBBoJVBVQBI+akXjGgECBAg8igK58lEOHx0/cSq2TIxXlVxySCO3XA3odp2ctZ88B0SqoEkKAL137lKcP3c5rl+/Xt24XA1ptVnymBwSOXv6fAoD1VOQN1W5SdWOmo1UlSlVKZqenknhouPVFMMpKHR/JaZbi4uRAzHvvnsu3nzz7diSqiWtZ93rczfi+PFTUavXYvfuHbFly0RVYWm1Z727L1c+yuGjt94+kSrpjMbYptF49dVjUaaSiDmUsmblp/+/7zznep737rVX+1xr1KtKPxcvXY1jR0/E9Rs30vudiOFU7Se3ubTviylUlKsLrbbu8nu5fPladX8OIN2+/2a8ffzdKhj0pbPnY//e7S0rU+UKSNdTxaWz711MAbF3YiRVLFrPehfOX65CZ1UAqVrx9pcbaa5Tp2eqH6anP3tXz70flysp/eSvXqvO98ULV9K7GImhwYEUMrtdpShXUlqr3e84nYJcOQy3HEBa6379BAgQIECAAAECBAgQIECAAAECBAgQIECAAAECBAgQIECAAAECBAgQIECAAAECBNoJKH3UTsZ1AgQIEHjkBOqp8k+9Xq/CR1/7rV9OlYoeTyGk2wGkmzcXqqo+ZQ4DjY7Ezh2TbZ8/h4++9b9eiDNnLsTOVKFoYKAvXnnlaNvx7ToGBvtj356d8eynHk/VdbZGV093XLo4nQI+78ZPXn61Cq8cTNWJcrjn/bSpbRPx1V95rqqslLYeP3vlWFy+dC3mb91Kax6OI88ciskt4zE5NRHbU2WbtVojDciVj3L46AvPPRujKeTy4kuvxjsnzsZv/4NfjSMpRPUotNGR4Xj22by/gzGbQjw/++kv4pt/+vy6H235/k9/+vFUFaseL//0zTiXqhQtLizG2RQ4y5Wrdu2cWlGZat0L3DdwU/L84nNH4tPPPpF6mrGYgkzz6Ty+ksJd3/r2D9K6S5X7fbfd+XG58lEO1+V0+Gc+81Q897lnYt/eHXcCZvOpmlJXqlg5lkJZY+l858DbWu3e54q03zL6+/qr4N7IyOBat+snQIAAAQIECBAgQIAAAQIECBAgQIAAAQIECBAgQIAAAQIECBAgQIAAAQIECBAgUAnkv+EWQHIYCBAgQOCRF7h1azGmZ+ZSFZwrsZBCJIND/fHUUwfjS1888r6ePVdSOnr0ZKqIMxdPPnEgtqYAz4kTZ1K4qRFzqS9XvRlM1XN6UqBotdbd3RObNuWw01Qc2L8rVUNqpmo986maz0KqcDRTzZc/v982MjQYIwf/JiiSwzgDKXDVTOts374lDh/amwJUUzE6crtSULt1arVGLC4upVDMfKqeVK8q6zxx+ECUXUW89NIrMTM9G9nkUWn5Wa9em4nLV2erR8oVpA4+treq5DO2juBMb19PbE8BtIMHd6XwTy0Fji5EX29PCm4tfiBb7BvojV27t8dTT+6/Z/6lZP297/8obib3HHo6ffpCbN686U5obnnwcuWmXPkoh4++8PlPxZfT2XgH5wUAACnxSURBVN6zZ/vykPf1falWS2f5RnK8XYVpbHQ4piY3r1np6n0t5iYCBAgQIECAAAECBAgQIECAAAECBAgQIECAAAECBAgQIECAAAECBAgQIECAAIFPrEBXV5cA0if27doYAQIEPkECOXz06utvx5u/OBHXUwhnYmL0gXZXq9WrUEgO8uQAT26DQwNVhZz33ksVclJlpF2potFYz9pVZu5+kLMpZPKtb78Qb7zxVuTQ1GiqVNO7Rojp7vs/qM850HP5ynQV6qml6jw9KYwzNbkpLVdGV1lGLQVVssWj0i5dulxVPHr+Bz+uHmnb1sn43C89HU+n0NnuPdvW/Zg5fJSDTNPTc7GUKiH19vXGzu2TVfWjXPXqw2o53PXyy69HV1dZVUoaHGxdEWssVaTKlY9y+GjLlvx+Hqzd73j40P74nW/8Rqoc9tiDTexuAgQIECBAgAABAgQIECBAgAABAgQIECBAgAABAgQIECBAgAABAgQIECBAgACBjhPozn9wXBRFx23chgkQIEDg4yPQSJVk5m/eils3F6LZqL/vB8+/8+r1ZiwuLVX/aou1FBRaqKodjY+PxdVUKeadE2djOFUUGhkejFwxZrV2a+FWFVZ65fW34srV6bh0Kf+7HN0p4bs/VUQ6fHh/jI6tPsdq8z+svpmZ6/Faesbj75ypwkdjKRi1tNSIhcVUESkFkprRFfOpstStxcXoSc+eE8of55YrPs2l6lanz5yPo2+dilOnz8XmLeOxJYWudqQAUq6o9GG2XIlodu5GzKYg3WLybtf6+lNAate2O5WPltLY+XQ+Z3L1r8vXYmE+vZ+erupM7dg2mSpC/U11rHZzuk6AAAECBAgQIECAAAECBAgQIECAAAECBAgQIECAAAECBAgQIECAAAECBAgQIEDgYQh0NxqNj/0fGj8MCHMQIECAwKMrkIMZ27ZOxOTUeApg9L7vB63CR6kaUK4IlH//5WpKb755MiZTMGXb1JZISZx489g7MT8/H4ce230nCNJuwZmZ2Xj5p6/F0WMnquo6m1LYaNvUZHz+c0fi0IE9sXvv1shBkY+6nb9wOZ5//q/ixKmzMTG+KbZObY4zZy/E5cvTlUEOssxdvxHXZ2/ESArnfNQBpMnJLfH3v/Yr8fTTtyv1nEkBoh+99GoKE52Mf/yNX4+JTatXwFpMYaqz5y7FzOzN+MsXflK97898+sk4kir/LFe8+jDfSV9vb6o4NRFbt2+JgYH1n98cPjp79lK89ubxePHFn6UqVtdSMG64Crb95q9/MQ6P7F11G/c75kDdvg1UkFp1cp0ECBAgQIAAAQIECBAgQIAAAQIECBAgQIAAAQIECBAgQIAAAQIECBAgQIAAAQIdJZCKNHy8qxx01NuyWQIECHSowEAKIG2dmkghjvHo6+1JVZCaUUsholwhpru7604lv6rCUbNRKXUV5Z3ry2y5EtCx46kizpmLKdA0GZNbJlIVmYEYHRmO0cPDKdzUE++8czrOnr8YN+YXlm9b9/fh4aF48skD8czTB2P/vu2xaY2gzLonfsCB12/cinfPvBfT167Hs0eejIMHdlUzLiwsxaFDt0Msp89ejFdffTueeepg9Kew10fZhlMgKoeP/vbf+nT1GH/5fyPOf/Mv4vyFFCq6fnPdj9ZVltHX1xtlqvSYP39YLZ/DHHBrpGpd6WP1DNtT5aVdOyZTta2+FY8x2N9XBddyIO6dVKVqOShUlLcrVNZSxa65VEHp0sWrqcLWtRR260mBsfkV89x/4X7H+/v9TIAAAQIECBAgQIAAAQIECBAgQIAAAQIECBAgQIAAAQIECBAgQIAAAQIECBAgQGC9At3rHWgcAQIECBD4qAR6e/tSlaLx2DwxHt293dGoN+LGzVvVv6HB/hQcuv3rrJ7CR4sLteoxe/u6o7u4N2Sbq/58809+kEIsc/Hc559JVY72pIpAo6kqze1QSL7nr//6tXVvc2xsND77mWfiiSf3x84UMJma3Bybt4zFeKqENDQ0sO55PqyBI8ODKSC1Lz7/2aeqJW+lSkFf/tKn4ujRk/HDH/0szqZKQxMTozH1EQeQHtSjN4WO8vt45ulDVdjqzV+8Ey/+6Odx8vTZGBsZSsGz8QddYtX7c/hoaale/cthpIEUMNq9a1vs27u95bnYMjEWn/2lp+KNX5yIH/zlT+J4Csn9zjd+I556Yl+q2DQZtVqaa7Eeb6b+E++eWXVtnQQIECBAgAABAgQIECBAgAABAgQIECBAgAABAgQIECBAgAABAgQIECBAgAABAgQetkD+m9juer0eqiA9bFrzESBAgMDDFOjuLlOlo4HYtn1LCmUcjKvXZiKHiV74Pz+NHEDqTlWRchtJoZ9t2zbH2NhIy+Vz9Zy3T7xbVaXZs3tbPPe5Z9LvwOJOpaTz5y+nANF4VW3m7bdPpSDRSOzZvTXNN9xyvv6+/ti1a2t8KgVdHju4OzZvHms57qO6ODt7o3I6fvx0qhoVMbZpJHakYM7ePdvveaQcRPrmt5+PK1evxezc2pV15pLj66+/fWeOvhQAG07hptHR4cqgVZWfO4PX8eH++U+eSMGh0dEYTWsMDfSvOUM+L8OpqlV+d/nfYqqW9Rff/3Fcunw1/uqv34ii7Ip9e7a1fa9rLnDfgPufN1c+ygGkM2cuxPZtk7Epn6Nk3q4i1mg6X0+nylP1ei2uXLkW5y9ejp///GjMzM5VK81MX09hu/kYHOxL+9kRO9OZG06Vu9Zq9z/Xw35Pa62vnwABAgQIECBAgAABAgQIECBAgAABAgQIECBAgAABAgQIECBAgAABAgQIECBA4JMhUBRFdJdl+cnYjV0QIECAwCdeIIdGcmWYV189Fi/++Ofx3e/+MMquMgVKimrvjz+2L77x278Wk1Pj0VW0//2WR+f77g4f5QkGBwdj186t8dbbJ+N7f/FinDp1rprvSJsAUrXoI/wlh7T+Z6r49MbR41FPVXm2pHBVrsbzoO3SpcvxzT99Pp7/wY+rqXI4KIeannzqQDz32WdicNfUAy3Rcv5UPejpJw/EtqmJDc+dgzvbt0/FsbdOxHe+88M49e656hw9e+SxDc/V6ob7nzcFvFPIrVmFj77whU/FkRRQy2e3XRtKYaID+3dGX6rclINTbx1/N1744cvxp3/2/eqWegozzd9aiB07tsZXf/WL8Zlnn0hzb2k33Z3r9z/Xw35PdxbygQABAgQIECBAgAABAgQIECBAgAABAgQIECBAgAABAgQIECBAgAABAgQIECBA4BMtUFVAaqQ/SFYB6RP9nm2OAAECnxiBXIloOTRy9NjJqqLN3ZvLydqyqyula7vuvnzn81iq0HP40P7q501jo3cqHy0PyPM/lUIuOdD03nsXly+v+L48z/W5m7EzhUJGRoaiJ1UBWm/r7+1NlYLGY28K1cxcn4uJ8dFU4ad1laW751xe9+b8rdi2dUsKTKXqTylItVYbGR6qglWHHtubqiCtXGd53jzPas9x97i11txIf35f/Sl8MzU5EY8f3h99A7333J4rH+Xw0TMpyJOrBbVrdz/f3fvI9zzxxO33fu5c+/ea3+FIWmvnjql44vCBqqrT3fPcv+7d693dl45hdbZy5aMcPlo+s3ePuftzX09P9E30RE9fdwwM9EVveo4rl6djZuZ6NayrpyuGeward/7k4X1x+PHdK85uHriW491r+kyAAAECBAgQIECAAAECBAgQIECAAAECBAgQIECAAAECBAgQIECAAAECBAgQIEBgvQL577SLFEBq5g8aAQIECBD4uAjMzMzFyVPnY2Z27p5HzoGQXGkmB4lateX7cl+rcTdvLsTlKzn4MRfz8/MpDDIQe3ZvXTHf8jy1pVpMTo7HprReDo6sN4S0uLgUs7M3Yjqtc+3aTPT29bV8nvv3sLxuo16LrVs3V+v29vZFd3frEFJeI1dBunFjPj1bTwrvDMXWFPIZGhq4Z+rledu5LA9eHne/e18KzAyn4M5o8t+8eSwGk8VGWr1ej6VU5Sd7vHf+UszNzd9z+9BAf1X5KAeJBlI4qbu7ddhr+fnyzXe/37mb83Hp0rWYTfPndzyY9n93//JiS+l95kpDM9NzcTGN7077ajVuefzyevd7LPevdR6Xxy1/r9XS+guL1fm7cPFqem+3lruq73m+vbu3xaYWIbI8YC3HB31P9zyMHwgQIECAAAECBAgQIECAAAECBAgQIECAAAECBAgQIECAAAECBAgQIECAAAECBDpKoEh/7NpUAamj3rnNEiBAgAABAgQIECBAgAABAgQIECBAgAABAgQIECBAgAABAgQIECBAgAABAgQIECBAgAABAgQIEFi3QNFMbd2jDSRAgAABAgQIECBAgAABAgQIECBAgAABAgQIECBAgAABAgQIECBAgAABAgQIECBAgAABAgQIECBAoKMEyo7arc0SIECAAAECBAgQIECAAAECBAgQIECAAAECBAgQIECAAAECBAgQIECAAAECBAgQIECAAAECBAgQILAhgVIBpA15GUyAAAECBAgQIECAAAECBAgQIECAAAECBAgQIECAAAECBAgQIECAAAECBAgQIECAAAECBAgQIECgYwRy9qhIX5ods2MbJUCAAAECBAgQIECAAAECBAgQIECAAAECBAgQIECAAAECBAgQIECAAAECBAgQIECAAAECBAgQIEBgQwIqIG2Iy2ACBAgQIECAAAECBAgQIECAAAECBAgQIECAAAECBAgQIECAAAECBAgQIECAAAECBAgQIECAAAECnSVQNhqNztqx3RIgQIAAAQIECBAgQIAAAQIECBAgQIAAAQIECBAgQIAAAQIECBAgQIAAAQIECBAgQIAAAQIECBAgsC6Ber0eRQogNYuiWNcNBhEgQIAAAQIECBAgQIAAAQIECBAgQIAAAQIECBAgQIAAAQIECBAgQIAAAQIECBAgQIAAAQIECBAg0FkCpfBRZ71wuyVAgAABAgQIECBAgAABAgQIECBAgAABAgQIECBAgAABAgQIECBAgAABAgQIECBAgAABAgQIECCwEYFyI4ONJUCAAAECBAgQIECAAAECBAgQIECAAAECBAgQIECAAAECBAgQIECAAAECBAgQIECAAAECBAgQIECgcwSazWYIIHXO+7ZTAgQIECBAgAABAgQIECBAgAABAgQIECBAgAABAgQIECBAgAABAgQIECBAgAABAgQIECBAgAABAhsWEEDaMJkbCBAgQIAAAQIECBAgQIAAAQIECBAgQIAAAQIECBAgQIAAAQIECBAgQIAAAQIECBAgQIAAAQIECHSGQKPRiCJ9aRZF0Rk7tksCBAgQIECAAAECBAgQIECAAAECBAgQIECAAAECBAgQIECAAAECBAgQIECAAAECBAgQIECAAAECBDYkUOYUkkaAAAECBAgQIECAAAECBAgQIECAAAECBAgQIECAAAECBAgQIECAAAECBAgQIECAAAECBAgQIECAAIFWAmVqra67RoAAAQIECBAgQIAAAQIECBAgQIAAAQIECBAgQIAAAQIECBAgQIAAAQIECBAgQIAAAQIECBAgQIAAgSiLosBAgAABAgQIECBAgAABAgQIECBAgAABAgQIECBAgAABAgQIECBAgAABAgQIECBAgAABAgQIECBAgACBFQLNZjPKer2+osMFAgQIECBAgAABAgQIECBAgAABAgQIECBAgAABAgQIECBAgAABAgQIECBAgAABAgQIECBAgAABAgQIZIEipZCaKAgQIECAAAECBAgQIECAAAECBAgQIECAAAECBAgQIECAAAECBAgQIECAAAECBAgQIECAAAECBAgQINBKoGx10TUCBAgQIECAAAECBAgQIECAAAECBAgQIECAAAECBAgQIECAAAECBAgQIECAAAECBAgQIECAAAECBAjk2kdlrVYjQYAAAQIECBAgQIAAAQIECBAgQIAAAQIECBAgQIAAAQIECBAgQIAAAQIECBAgQIAAAQIECBAgQIAAgRUCRVFEkVJIzRU9LhAgQIAAAQIECBAgQIAAAQIECBAgQIAAAQIECBAgQIAAAQIECBAgQIAAAQIECBAgQIAAAQIECBAgQCAJlBQIECBAgAABAgQIECBAgAABAgQIECBAgAABAgQIECBAgAABAgQIECBAgAABAgQIECBAgAABAgQIECDQSqBer6uA1ArGNQIECBAgQIAAAQIECBAgQIAAAQIECBAgQIAAAQIECBAgQIAAAQIECBAgQIAAAQIECBAgQIAAAQIEbguogOQkECBAgAABAgQIECBAgAABAgQIECBAgAABAgQIECBAgAABAgQIECBAgAABAgQIECBAgAABAgQIECDQVqBsNpttO3UQIECAAAECBAgQIECAAAECBAgQIECAAAECBAgQIECAAAECBAgQIECAAAECBAgQIECAAAECBAgQINDZAmWj0ehsAbsnQIAAAQIECBAgQIAAAQIECBAgQIAAAQIECBAgQIAAAQIECBAgQIAAAQIECBAgQIAAAQIECBAgQKCtQJEqICmB1JZHBwECBAgQIECAAAECBAgQIECAAAECBAgQIECAAAECBAgQIECAAAECBAgQIECAAAECBAgQIECAAIHOFig7e/t2T4AAAQIECBAgQIAAAQIECBAgQIAAAQIECBAgQIAAAQIECBAgQIAAAQIECBAgQIAAAQIECBAgQIBAO4Fc+6is1+vt+l0nQIAAAQIECBAgQIAAAQIECBAgQIAAAQIECBAgQIAAAQIECBAgQIAAAQIECBAgQIAAAQIECBAgQKCDBYqiiDK1DiawdQIECBAgQIAAAQIECBAgQIAAAQIECBAgQIAAAQIECBAgQIAAAQIECBAgQIAAAQIECBAgQIAAAQIE2glUFZAajUa7ftcJECBAgAABAgQIECBAgAABAgQIECBAgAABAgQIECBAgAABAgQIECBAgAABAgQIECBAgAABAgQIEOhgARWQOvjl2zoBAgQIECBAgAABAgQIECBAgAABAgQIECBAgAABAgQIECBAgAABAgQIECBAgAABAgQIECBAgACB9QiUKiCth8kYAgQIECBAgAABAgQIECBAgAABAgQIECBAgAABAgQIECBAgAABAgQIECBAgAABAgQIECBAgAABAp0pUDRT68yt2zUBAgQIECBAgAABAgQIECBAgAABAgQIECBAgAABAgQIECBAgAABAgQIECBAgAABAgQIECBAgAABAmsJlGsN0E+AAAECBAgQIECAAAECBAgQIECAAAECBAgQIECAAAECBAgQIECAAAECBAgQIECAAAECBAgQIECAQOcKlAogde7Lt3MCBAgQIECAAAECBAgQIECAAAECBAgQIECAAAECBAgQIECAAAECBAgQIECAAAECBAgQIECAAAECqwnk7FGRvjRXG6SPAAECBAgQIECAAAECBAgQIECAAAECBAgQIECAAAECBAgQIECAAAECBAgQIECAAAECBAgQIECAAIHOFVABqXPfvZ0TIECAAAECBAgQIECAAAECBAgQIECAAAECBAgQIECAAAECBAgQIECAAAECBAgQIECAAAECBAgQWFOgbDQaaw4ygAABAgQIECBAgAABAgQIECBAgAABAgQIECBAgAABAgQIECBAgAABAgQIECBAgAABAgQIECBAgACBzhOo1+tRpABSsyiKztu9HRMgQIAAAQIECBAgQIAAAQIECBAgQIAAAQIECBAgQIAAAQIECBAgQIAAAQIECBAgQIAAAQIECBAgsKZAKXy0ppEBBAgQIECAAAECBAgQIECAAAECBAgQIECAAAECBAgQIECAAAECBAgQIECAAAECBAgQIECAAAECBDpWoOzYnds4AQIECBAgQIAAAQIECBAgQIAAAQIECBAgQIAAAQIECBAgQIAAAQIECBAgQIAAAQIECBAgQIAAAQKrCjSbzRBAWpVIJwECBAgQIECAAAECBAgQIECAAAECBAgQIECAAAECBAgQIECAAAECBAgQIECAAAECBAgQIECAAIHOFhBA6uz3b/cECBAgQIAAAQIECBAgQIAAAQIECBAgQIAAAQIECBAgQIAAAQIECBAgQIAAAQIECBAgQIAAAQIE2go0Go0o0pdmURRtB+kgQIAAAQIECBAgQIAAAQIECBAgQIAAAQIECBAgQIAAAQIECBAgQIAAAQIECBAgQIAAAQIECBAgQKBzBcqcQtIIECBAgAABAgQIECBAgAABAgQIECBAgAABAgQIECBAgAABAgQIECBAgAABAgQIECBAgAABAgQIECDQSqBMrdV11wgQIECAAAECBAgQIECAAAECBAgQIECAAAECBAgQIECAAAECBAgQIECAAAECBAgQIECAAAECBAgQIBBlURQYCBAgQIAAAQIECBAgQIAAAQIECBAgQIAAAQIECBAgQIAAAQIECBAgQIAAAQIECBAgQIAAAQIECBAgsEKg2WxGWa/XV3S4QIAAAQIECBAgQIAAAQIECBAgQIAAAQIECBAgQIAAAQIECBAgQIAAAQIECBAgQIAAAQIECBAgQIAAgSxQpBRSEwUBAgQIECBAgAABAgQIECBAgAABAgQIECBAgAABAgQIECBAgAABAgQIECBAgAABAgQIECBAgAABAgRaCZStLrpGgAABAgQIECBAgAABAgQIECBAgAABAgQIECBAgAABAgQIECBAgAABAgQIECBAgAABAgQIECBAgACBXPuorNVqJAgQIECAAAECBAgQIECAAAECBAgQIECAAAECBAgQIECAAAECBAgQIECAAAECBAgQIECAAAECBAgQILBCoCiKKFIKqbmixwUCBAgQIECAAAECBAgQIECAAAECBAgQIECAAAECBAgQIECAAAECBAgQIECAAAECBAgQIECAAAECBAgkgZICAQIECBAgQIAAAQIECBAgQIAAAQIECBAgQIAAAQIECBAgQIAAAQIECBAgQIAAAQIECBAgQIAAAQIEWgnU63UVkFrBuEaAAAECBAgQIECAAAECBAgQIECAAAECBAgQIECAAAECBAgQIECAAAECBAgQIECAAAECBAgQIECAwG0BFZCcBAIECBAgQIAAAQIECBAgQIAAAQIECBAgQIAAAQIECBAgQIAAAQIECBAgQIAAAQIECBAgQIAAAQIE2gqUzWazbacOAgQIECBAgAABAgQIECBAgAABAgQIECBAgAABAgQIECBAgAABAgQIECBAgAABAgQIECBAgAABAgQ6W6BsNBqdLWD3BAgQIECAAAECBAgQIECAAAECBAgQIECAAAECBAgQIECAAAECBAgQIECAAAECBAgQIECAAAECBAi0FShSBSQlkNry6CBAgAABAgQIECBAgAABAgQIECBAgAABAgQIECBAgAABAgQIECBAgAABAgQIECBAgAABAgQIECDQ2QJlZ2/f7gkQIECAAAECBAgQIECAAAECBAgQIECAAAECBAgQIECAAAECBAgQIECAAAECBAgQIECAAAECBAgQaCeQax+V9Xq9Xb/rBAgQIECAAAECBAgQIECAAAECBAgQIECAAAECBAgQIECAAAECBAgQIECAAAECBAgQIECAAAECBAh0sEBRFFGm1sEEtk6AAAECBAgQIECAAAECBAgQIECAAAECBAgQIECAAAECBAgQIECAAAECBAgQIECAAAECBAgQIECAQDuBqgJSo9Fo1+86AQIECBAgQIAAAQIECBAgQIAAAQIECBAgQIAAAQIECBAgQIAAAQIECBAgQIAAAQIECBAgQIAAAQIdLKACUge/fFsnQIAAAQIECBAgQIAAAQIECBAgQIAAAQIECBAgQIAAAQIECBAgQIAAAQIECBAgQIAAAQIECBAgsB6BUgWk9TAZQ4AAAQIECBAgQIAAAQIECBAgQIAAAQIECBAgQIAAAQIECBAgQIAAAQIECBAgQIAAAQIECBAgQKAzBYpmap25dbsmQIAAAQIECBAgQIAAAQIECBAgQIAAAQIECBAgQIAAAQIECBAgQIAAAQIECBAgQIAAAQIECBAgQGAtgXKtAfoJECBAgAABAgQIECBAgAABAgQIECBAgAABAgQIECBAgAABAgQIECBAgAABAgQIECBAgAABAgQIEOhcgVIBpM59+XZOgAABAgQIECBAgAABAgQIECBAgAABAgQIECBAgAABAgQIECBAgAABAgQIECBAgAABAgQIECBAYDWBnD0q0pfmaoP0ESBAgAABAgQIECBAgAABAgQIECBAgAABAgQIECBAgAABAgQIECBAgAABAgQIECBAgAABAgQIECDQuQIqIHXuu7dzAgQIECBAgAABAgQIECBAgAABAgQIECBAgAABAgQIECBAgAABAgQIECBAgAABAgQIECBAgAABAmsKlI1GY81BBhAgQIAAAQIECBAgQIAAAQIECBAgQIAAAQIECBAgQIAAAQIECBAgQIAAAQIECBAgQIAAAQIECBAg0HkC9Xo9ihRAahZF0Xm7t2MCBAgQIECAAAECBAgQIECAAAECBAgQIECAAAECBAgQIECAAAECBAgQIECAAAECBAgQIECAAAECBNYUKIWP1jQygAABAgQIECBAgAABAgQIECBAgAABAgQIECBAgAABAgQIECBAgAABAgQIECBAgAABAgQIECBAgEDHCpQdu3MbJ0CAAAECBAgQIECAAAECBAgQIECAAAECBAgQIECAAAECBAgQIECAAAECBAgQIECAAAECBAgQIEBgVYFmsxkCSKsS6SRAgAABAgQIECBAgAABAgQIECBAgAABAgQIECBAgAABAgQIECBAgAABAgQIECBAgAABAgQIECDQ2QICSJ39/u2eAAECBAgQIECAAAECBAgQIECAAAECBAgQIECAAAECBAgQIECAAAECBAgQIECAAAECBAgQIECAQFuBRqMRRfrSLIqi7SAdBAgQIECAAAECBAgQIECAAAECBAgQIECAAAECBAgQIECAAAECBAgQIECAAAECBAgQIECAAAECBAh0rkCZU0gaAQIECBAgQIAAAQIECBAgQIAAAQIECBAgQIAAAQIECBAgQIAAAQIECBAgQIAAAQIECBAgQIAAAQIEWgmUqbW67hoBAgQIECBAgAABAgQIECBAgAABAgQIECBAgAABAgQIECBAgAABAgQIECBAgAABAgQIECBAgAABAgSiLIoCAwECBAgQIECAAAECBAgQIECAAAECBAgQIECAAAECBAgQIECAAAECBAgQIECAAAECBAgQIECAAAECBFYINJvNKOv1+ooOFwgQIECAAAECBAgQIECAAAECBAgQIECAAAECBAgQIECAAAECBAgQIECAAAECBAgQIECAAAECBAgQIJAFipRCaqIgQIAAAQIECBAgQIAAAQIECBAgQIAAAQIECBAgQIAAAQIECBAgQIAAAQIECBAgQIAAAQIECBAgQIBAK4Gy1UXXCBAgQIAAAQIECBAgQIAAAQIECBAgQIAAAQIECBAgQIAAAQIECBAgQIAAAQIECBAgQIAAAQIECBAgkGsflbVajQQBAgQIECBAgAABAgQIECBAgAABAgQIECBAgAABAgQIECBAgAABAgQIECBAgAABAgQIECBAgAABAgRWCBRFEUVKITVX9LhAgAABAgQIECBAgAABAgQIECBAgAABAgQIECBAgAABAgQIECBAgAABAgQIECBAgAABAgQIECBAgACBJFBSIECAAAECBAgQIECAAAECBAgQIECAAAECBAgQIECAAAECBAgQIECAAAECBAgQIECAAAECBAgQIECAQCuBer2uAlIrGNcIECBAgAABAgQIECBAgAABAgQIECBAgAABAgQIECBAgAABAgQIECBAgAABAgQIECBAgAABAgQIELgtoAKSk0CAAAECBAgQIECAAAECBAgQIECAAAECBAgQIECAAAECBAgQIECAAAECBAgQIECAAAECBAgQIECAQFuBstlstu3UQYAAAQIECBAgQIAAAQIECBAgQIAAAQIECBAgQIAAAQIECBAgQIAAAQIECBAgQIAAAQIECBAgQIBAZwuUjUajswXsngABAgQIECBAgAABAgQIECBAgAABAgQIECBAgAABAgQIECBAgAABAgQIECBAgAABAgQIECBAgACBtgJFqoCkBFJbHh0ECBAgQIAAAQIECBAgQIAAAQIECBAgQIAAAQIECBAgQIAAAQIECBAgQIAAAQIECBAgQIAAAQIEOlug7Ozt2z0BAgQIECBAgAABAgQIECBAgAABAgQIECBAgAABAgQIECBAgAABAgQIECBAgAABAgQIECBAgAABAu0Ecu2jsl6vt+t3nQABAgQIECBAgAABAgQIECBAgAABAgQIECBAgAABAgQIECBAgAABAgQIECBAgAABAgQIECBAgACBDhYoiiLK1DqYwNYJECBAgAABAgQIECBAgAABAgQIECBAgAABAgQIECBAgAABAgQIECBAgAABAgQIECBAgAABAgQIEGgnUFVAajQa7fpdJ0CAAAECBAgQIECAAAECBAgQIECAAAECBAgQIECAAAECBAgQIECAAAECBAgQIECAAAECBAgQIECggwVUQOrgl2/rBAgQIECAAAECBAgQIECAAAECBAgQIECAAAECBAgQIECAAAECBAgQIECAAAECBAgQIECAAAECBNYjUKqAtB4mYwgQIECAAAECBAgQIECAAAECBAgQIECAAAECBAgQIECAAAECBAgQIECAAAECBAgQIECAAAECBAh0pkDRTK0zt27XBAgQIECAAAECBAgQIECAAAECBAgQIECAAAECBAgQIECAAAECBAgQIECAAAECBAgQIECAAAECBAisJVCuNUA/AQIECBAgQIAAAQIECBAgQIAAAQIECBAgQIAAAQIECBAgQIAAAQIECBAgQIAAAQIECBAgQIAAAQKdK1AqgNS5L9/OCRAgQIAAAQIECBAgQIAAAQIECBAgQIAAAQIECBAgQIAAAQIECBAgQIAAAQIECBAgQIAAAQIECKwmkLNHRfrSXG2QPgIECBAgQIAAAQIECBAgQIAAAQIECBAgQIAAAQIECBAgQIAAAQIECBAgQIAAAQIECBAgQIAAAQIEOldABaTOffd2ToAAAQIECBAgQIAAAQIECBAgQIAAAQIECBAgQIAAAQIECBAgQIAAAQIECBAgQIAAAQIECBAgQGBNgbLRaKw5yAACBAgQIECAAAECBAgQIECAAAECBAgQIECAAAECBAgQIECAAAECBAgQIECAAAECBAgQIECAAAECBDpPoF6vR5ECSM2iKDpv93ZMgAABAgQIECBAgAABAgQIECBAgAABAgQIECBAgAABAgQIECBAgAABAgQIECBAgAABAgQIECBAgMCaAqXw0ZpGBhAgQIAAAQIECBAgQIAAAQIECBAgQIAAAQIECBAgQIAAAQIECBAgQIAAAQIECBAgQIAAAQIECBDoWIGyY3du4wQIECBAgAABAgQIECBAgAABAgQIECBAgAABAgQIECBAgAABAgQIECBAgAABAgQIECBAgAABAgQIrCrQbDZDAGlVIp0ECBAgQIAAAQIECBAgQIAAAQIECBAgQIAAAQIECBAgQIAAAQIECBAgQIAAAQIECBAgQIAAAQIEOltAAKmz37/dEyBAgAABAgQIECBAgAABAgQIECBAgAABAgQIECBAgAABAgQIECBAgAABAgQIECBAgAABAgQIEGgr0Gg0okhfmkVRtB2kgwABAgQIECBAgAABAgQIECBAgAABAgQIECBAgAABAgQIECBAgAABAgQIECBAgAABAgQIECBAgACBzhUocwpJI0CAAAECBAgQIECAAAECBAgQIECAAAECBAgQIECAAAECBAgQIECAAAECBAgQIECAAAECBAgQIECAQCuBMrVW110jQIAAAQIECBAgQIAAAQIECBAgQIAAAQIECBAgQIAAAQIECBAgQIAAAQIECBAgQIAAAQIECBAgQIBAlEVRYCBAgAABAgQIECBAgAABAgQIECBAgAABAgQIECBAgAABAgQIECBAgAABAgQIECBAgAABAgQIECBAgMAKgWazGWW9Xl/R4QIBAgQIECBAgAABAgQIECBAgAABAgQIECBAgAABAgQIECBAgAABAgQIECBAgAABAgQIECBAgAABAgSyQJFSSE0UBAgQIECAAAECBAgQIECAAAECBAgQIECAAAECBAgQIECAAAECBAgQIECAAAECBAgQIECAAAECBAgQaCVQtrroGgECBAgQIECAAAECBAgQIECAAAECBAgQIECAAAECBAgQIECAAAECBAgQIECAAAECBAgQIECAAAECBHLto/8H/PV61s9vH/cAAAAASUVORK5CYII=;" vertex="1" parent="1">
          <mxGeometry x="41.36" y="40" width="763.66" height="80" as="geometry" />
        </mxCell>
        <mxCell id="OcKrSWbJJXXR0cNZXRlc-3" value="" style="rounded=1;whiteSpace=wrap;html=1;" vertex="1" parent="1">
          <mxGeometry x="305" y="160" width="305" height="170" as="geometry" />
        </mxCell>
        <mxCell id="OcKrSWbJJXXR0cNZXRlc-4" value="Enter Your UserName" style="text;html=1;strokeColor=default;fillColor=none;align=center;verticalAlign=middle;whiteSpace=wrap;rounded=0;" vertex="1" parent="1">
          <mxGeometry x="352.5" y="196" width="210" height="30" as="geometry" />
        </mxCell>
        <mxCell id="OcKrSWbJJXXR0cNZXRlc-5" value="Enter Your Password" style="text;html=1;strokeColor=default;fillColor=none;align=center;verticalAlign=middle;whiteSpace=wrap;rounded=0;" vertex="1" parent="1">
          <mxGeometry x="352.5" y="233" width="210" height="30" as="geometry" />
        </mxCell>
        <mxCell id="OcKrSWbJJXXR0cNZXRlc-9" value="Sign In" style="html=1;shadow=0;dashed=0;shape=mxgraph.bootstrap.rrect;rSize=5;strokeColor=none;strokeWidth=1;fillColor=#0085FC;fontColor=#FFFFFF;whiteSpace=wrap;align=center;verticalAlign=middle;spacingLeft=0;fontStyle=0;fontSize=16;spacing=5;" vertex="1" parent="1">
          <mxGeometry x="417.5" y="275" width="80" height="40" as="geometry" />
        </mxCell>
      </root>
    </mxGraphModel>
  </diagram>
</mxfile>
